<?xml version="1.0" encoding="utf-8"?>
<!-- Generator: Adobe Illustrator 21.0.0, SVG Export Plug-In . SVG Version: 6.00 Build 0)  -->
<svg version="1.1" id="Layer_1" xmlns="http://www.w3.org/2000/svg" xmlns:xlink="http://www.w3.org/1999/xlink" x="0px" y="0px"
	 viewBox="0 0 80.4 83.1" style="enable-background:new 0 0 80.4 83.1;" xml:space="preserve">
<style type="text/css">
	.st0{fill:url(#SVGID_1_);}
	.st1{fill:url(#SVGID_2_);}
	.st2{fill:url(#SVGID_3_);}
	.st3{fill:url(#SVGID_4_);}
</style>
<g>
	
		<image style="overflow:visible;opacity:0.75;" width="93" height="56" xlink:href="60DAAF87.png"  transform="matrix(1 0 0 1 -2.5067 29.5933)">
	</image>
	<g>
		<g>
			<linearGradient id="SVGID_1_" gradientUnits="userSpaceOnUse" x1="9.5782" y1="58.414" x2="73.8004" y2="58.414">
				<stop  offset="0" style="stop-color:#69C52B"/>
				<stop  offset="1" style="stop-color:#006831"/>
			</linearGradient>
			<path class="st0" d="M25.9,45.7c0,0-12.5-0.5-11.5,7.1h0.8l0.1,2.8l0.8-0.3l1.6,2.6h0.8l1.7,2.1c0,0,2.1-0.6,2.2-0.4
				c0.2,0.2-0.3,0.7,0.1,1c0.3,0.2,1.6,1.2,1.9,1.6c0.3,0.4-0.1,0.7-0.1,0.9c0,0.1,2.7-0.3,2.7-0.3l1.3,1.5c0,0,0.6-0.6,0.7-0.4
				C29,64,30.6,66,30.6,66s1.1-1,1.6-0.7c0.5,0.3,1.9,1.5,2.1,1.9s0,0.9,0,0.9l2.5-0.9l1.7,1.6c0,0,0.3,0.3,0.6,0.7s2.1-0.6,2.1-0.6
				l3.5,2.2c0,0,0.8-1,1.6-0.7c0.8,0.3,3,1.6,3,1.6s0.6-1.1,1.1-0.9c0.5,0.2,4.1,1.4,4.6,1.8c0.5,0.3,0.5,0.6,0.5,0.6l1.2-1.1
				l1.7,1.1c0,0,1.8,0.9,2.8,1c0.9,0.1,2.7-2.1,2.7-2.1l0.6-0.4l1.4,0.2c0,0,1.1-2.4,0.8-2.4s2.1,0,2.1,0.2c0,0.2,1.5-2.2,0-2.7
				s2.7-0.6,2.7-0.6s0.8-2.7,0-2.9s1.6-0.5,1.6-0.5l-0.6-1.7c0,0-1.3-0.9-0.9-1.1s2.3-0.5,2.3-0.2s-0.4-1.6-1-1.8
				c-0.6-0.2-1.5-0.9-0.6-0.8c0.9,0.1,1.6,0,1.6,0s-2.2-1.2-1.9-1.4s1-0.2,1-0.2s-1.3-0.5-1.2-0.7s1-0.3,1-0.3l-1.8-1
				c0,0,0.1-0.8,0.4-0.6c0.3,0.1-2.2-1.5-2.2-1.5s0.1-0.8,1.3-0.5c1.2,0.3-3.8-1.5-3.8-1.5s0.1-0.8,0.9-0.5c0.9,0.3-2.6-1.2-2.6-1.2
				l0.3-0.5l-4.4-1.4l-0.2-0.7l-6.3-1.4l-0.3-0.4h-1.9l-4-0.7v-0.4c0,0-4,0.5-4.8,0.2s-6-0.2-7,0.3s-9,1.9-9,1.9l-0.9,0.1
				c0,0-10.1-4.3-16.8-2.5c0,0-0.7,0.2,0.5,0.2C10.3,43,15,41.5,25.9,45.7z"/>
			
				<linearGradient id="SVGID_2_" gradientUnits="userSpaceOnUse" x1="-134.474" y1="317.723" x2="-76.396" y2="317.723" gradientTransform="matrix(0.7153 -0.6988 0.6988 0.7153 -104.7127 -249.8191)">
				<stop  offset="0" style="stop-color:#69C52B"/>
				<stop  offset="1" style="stop-color:#006831"/>
			</linearGradient>
			<path class="st1" d="M16.6,47c0,0-9.6,4.4,1,9.4l0.6-0.3l3.7,2l0.1-0.5l4.5,1.3l0.6-0.3l4,0.8c0,0,0.7-1.2,1.1-1.1
				c0.4,0.1,0.8,0.6,1.3,0.7s2.8,0.3,3.5,0.4c0.7,0.2,0.9,0.6,1.1,0.7s1.6-1.2,1.6-1.2l2.9,0.6c0,0-0.4-0.7,0-0.6s4,0.9,4,0.9
				s-0.5-1.1,0.3-1.1c0.7,0,3.3,0.4,3.9,0.5c0.5,0.2,1.2,0.7,1.2,0.7l0.6-1.6l3.3,0.5c0,0,0.6,0.1,1.4,0.3c0.8,0.2,0.6-1.2,0.6-1.2
				l5.4,0.3c0,0-0.8-1,0.2-1.1c1-0.1,4.2,0,4.2,0s-1-1-0.3-1c0.6-0.1,4.8-0.5,5.6-0.5c0.8,0,1.2,0.3,1.2,0.3l-0.5-1.2l2.6,0.1
				c0,0,2.4-0.1,3.3-0.3s-0.8-2.5-0.8-2.5l-0.1-0.5l1.2-0.4c0,0-2.3-2.1-2.6-2c-0.2,0.1,1.5-0.7,1.8-0.6c0.2,0.1-1.8-2.1-3.5-1.9
				c-1.7,0.2,1.1-1.4,1.1-1.4s-2.9-2.2-3.8-2.1c-0.9,0.1,0.5-1,0.5-1l-2.6-1c0,0-2.1-0.2-2-0.4s1-1.2,1.4-1s-2.4-1-3.1-0.9
				c-0.7,0.1-2.2-0.1-1.4-0.3s1.1-0.6,1.1-0.6s-3.1,0-3.2-0.3s0.4-0.6,0.4-0.6s-1.6,0.1-1.8-0.1c-0.2-0.2,0.4-0.6,0.4-0.6l-2.6,0
				c0,0-1-0.6-0.5-0.6c0.4,0-3.5-0.3-3.5-0.3s-1-0.6,0.3-0.8c1.2-0.3-4.6,0.4-4.6,0.4s-1-0.6,0.1-0.7c1-0.1-3.4,0.1-3.4,0.1
				l-0.4-0.4l-5,0.7l-1.1-0.5l-6.3,1.4l-0.8-0.2l-1.4,0.7l-3.7,1l-0.5-0.3c0,0-2.2,1.8-3.2,2c-0.9,0.2-4.6,2.1-4.6,2.8
				c-0.1,0.7-3.9,4.8-3.9,4.8l-0.5,0.4c0,0-12.9,0.7-15.4,4.5c0,0-0.3,0.4,0.7,0C2,50.9,3.3,48.1,16.6,47z"/>
		</g>
	</g>
</g>
<g>
	
		<image style="overflow:visible;opacity:0.75;" width="153" height="148" xlink:href="60DAAF82.png"  transform="matrix(1 0 0 1 374.4933 33.5933)">
	</image>
	<g>
		<g>
			<linearGradient id="SVGID_3_" gradientUnits="userSpaceOnUse" x1="393.3142" y1="117.9839" x2="505.669" y2="117.9839">
				<stop  offset="0" style="stop-color:#69C52B"/>
				<stop  offset="1" style="stop-color:#006831"/>
			</linearGradient>
			<path class="st2" d="M421.9,76.4c0,0-21.9-1.5-20.1,23.1h1.4l0.2,9.2l1.4-1.1l2.7,8.6h1.4l3,6.8c0,0,3.6-2,3.9-1.4
				c0.3,0.6-0.5,2.4,0.2,3.2c0.6,0.8,2.9,4.1,3.3,5.3s-0.2,2.4-0.2,2.9c0,0.5,4.7-0.9,4.7-0.9l2.3,5c0,0,1.1-2,1.2-1.4
				c0.2,0.6,2.9,7.1,2.9,7.1s2-3.2,2.9-2.3c0.9,0.9,3.3,5,3.6,6c0.3,1.1,0,3,0,3l4.4-3l3,5.1c0,0,0.5,1.1,1.1,2.4
				c0.6,1.4,3.6-2.1,3.6-2.1l6,7.2c0,0,1.4-3.3,2.7-2.3c1.4,1.1,5.3,5.1,5.3,5.1s1.1-3.5,2-2.9c0.9,0.6,7.1,4.7,8,5.7
				c0.9,1.1,0.9,2.1,0.9,2.1l2.1-3.5l3,3.5c0,0,3.2,2.9,4.8,3.3c1.7,0.5,4.7-6.8,4.7-6.8l1.1-1.2l2.4,0.6c0,0,2-7.8,1.4-7.8
				c-0.6,0,3.6,0.2,3.6,0.8s2.6-7.1,0-8.8c-2.6-1.7,4.7-2,4.7-2s1.4-8.8,0-9.5c-1.4-0.8,2.9-1.7,2.9-1.7l-1.1-5.4c0,0-2.3-3-1.5-3.5
				s4.1-1.7,4.1-0.8c0,0.9-0.8-5.3-1.8-6c-1.1-0.7-2.6-2.9-1.1-2.5s2.9-0.2,2.9-0.2s-3.9-3.8-3.3-4.7c0.6-0.9,1.8-0.8,1.8-0.8
				s-2.3-1.7-2.1-2.4c0.2-0.8,1.8-0.9,1.8-0.9l-3.2-3.3c0,0,0.2-2.6,0.8-2.1c0.6,0.5-3.8-4.8-3.8-4.8s0.2-2.6,2.3-1.7
				c2.1,0.9-6.6-4.8-6.6-4.8s0.2-2.6,1.7-1.5c1.5,1.1-4.5-3.9-4.5-3.9l0.5-1.5l-7.7-4.5l-0.3-2.4l-11-4.5l-0.6-1.4h-3.3l-6.9-2.3
				v-1.4c0,0-6.9,1.5-8.5,0.8c-1.5-0.8-10.6-0.6-12.2,0.9c-1.7,1.5-15.7,6.3-15.7,6.3l-1.5,0.3c0,0-17.7-14.2-29.4-8.3
				c0,0-1.2,0.6,0.9,0.8C394.6,67.7,402.7,62.7,421.9,76.4z"/>
			
				<linearGradient id="SVGID_4_" gradientUnits="userSpaceOnUse" x1="105.501" y1="634.6407" x2="217.8558" y2="634.6407" gradientTransform="matrix(0.7153 -0.6988 0.6988 0.7153 -104.7127 -249.8191)">
				<stop  offset="0" style="stop-color:#69C52B"/>
				<stop  offset="1" style="stop-color:#006831"/>
			</linearGradient>
			<path class="st3" d="M405.6,80.7c0,0-16.7,14.2,1.8,30.6l1-0.9l6.5,6.5l0.2-1.7l8,4.3l1-0.9l6.9,2.7c0,0,1.2-3.9,1.8-3.7
				s1.4,2,2.3,2.2c1,0.1,4.9,0.9,6.1,1.5s1.6,1.8,1.9,2.2c0.3,0.3,2.7-3.9,2.7-3.9l5.1,2c0,0-0.6-2.1-0.1-1.8c0.5,0.3,7,3.1,7,3.1
				s-0.8-3.6,0.5-3.6c1.3,0,5.9,1.2,6.8,1.8c1,0.5,2.1,2.2,2.1,2.2l1-5.2l5.7,1.6c0,0,1.1,0.4,2.4,1c1.4,0.5,1.1-4,1.1-4l9.4,1
				c0,0-1.3-3.3,0.4-3.5c1.7-0.2,7.4,0,7.4,0s-1.7-3.2-0.6-3.4c1.1-0.2,8.3-1.6,9.7-1.5c1.4,0.1,2.1,0.9,2.1,0.9l-0.9-4l4.6,0.4
				c0,0,4.3-0.2,5.8-1c1.5-0.8-1.4-8.1-1.4-8.1l-0.1-1.6l2.1-1.3c0,0-4.1-7-4.5-6.6c-0.4,0.4,2.7-2.4,3.1-2c0.4,0.4-3.1-6.9-6.1-6.3
				s2-4.7,2-4.7s-5.1-7.2-6.6-6.8s0.9-3.2,0.9-3.2l-4.6-3.1c0,0-3.7-0.6-3.5-1.4c0.2-0.9,1.8-4,2.4-3.4c0.6,0.6-4.3-3.3-5.5-3
				c-1.2,0.3-3.9-0.3-2.5-1s1.9-2.1,1.9-2.1s-5.4,0-5.6-1c-0.2-1.1,0.8-1.8,0.8-1.8s-2.8,0.4-3.2-0.3s0.7-1.9,0.7-1.9l-4.6-0.2
				c0,0-1.7-1.9-0.9-2c0.7-0.1-6.1-0.8-6.1-0.8s-1.7-1.9,0.5-2.8c2.1-0.8-8.1,1.2-8.1,1.2s-1.7-1.9,0.1-2.2c1.8-0.3-6,0.4-6,0.4
				l-0.7-1.4l-8.7,2.1l-1.9-1.5l-11,4.5l-1.4-0.5l-2.4,2.3l-6.5,3.2l-0.9-1c0,0-3.9,5.9-5.5,6.4c-1.6,0.5-8,7-8.1,9.2
				c-0.1,2.2-6.8,15.5-6.8,15.5l-0.9,1.3c0,0-22.6,2.2-26.9,14.6c0,0-0.4,1.3,1.2-0.1C380,93.6,382.3,84.3,405.6,80.7z"/>
		</g>
	</g>
</g>
</svg>
