<?xml version="1.0" encoding="utf-8"?>
<!-- Generator: Adobe Illustrator 21.0.0, SVG Export Plug-In . SVG Version: 6.00 Build 0)  -->
<svg version="1.1" id="Layer_1" xmlns="http://www.w3.org/2000/svg" xmlns:xlink="http://www.w3.org/1999/xlink" x="0px" y="0px"
	 viewBox="0 0 80.4 83.1" style="enable-background:new 0 0 80.4 83.1;" xml:space="preserve">
<style type="text/css">
	.st0{fill:#FF3732;}
	.st1{fill:url(#SVGID_1_);}
	.st2{fill:url(#SVGID_2_);}
	.st3{fill:url(#SVGID_3_);}
</style>
<g>
	<path class="st0" d="M42,35.6c-2.8-21-27.2-32.9-31.5-33.4C7.3,1.7,4.3-0.8,2,0.3S-1.9,4.8,4.6,4c16.5-2,37.2,20.4,34.9,31.8
		L42,35.6z"/>
	
		<linearGradient id="SVGID_1_" gradientUnits="userSpaceOnUse" x1="35.906" y1="-7.6052" x2="47.8047" y2="-40.9406" gradientTransform="matrix(1 0 0 -1 0 17.3333)">
		<stop  offset="0" style="stop-color:#F80504"/>
		<stop  offset="1" style="stop-color:#FC3743"/>
	</linearGradient>
	<path class="st1" d="M79.6,40.2c4,12-5.8,38.6-27.4,42.3C32.8,85.8,16.4,75,10.4,60.4c-7.2-17.5,0.1-29.9,24.9-35.5
		C51.2,21.4,69.5,10.1,79.6,40.2z"/>
	
		<radialGradient id="SVGID_2_" cx="42.1868" cy="-273.7387" r="11.894" gradientTransform="matrix(0.9992 3.963152e-02 1.981576e-02 -0.4996 -3.3139 -100.7199)" gradientUnits="userSpaceOnUse">
		<stop  offset="0" style="stop-color:#FFB0A8"/>
		<stop  offset="1" style="stop-color:#FFB0A8;stop-opacity:0"/>
	</radialGradient>
	<path class="st2" d="M48.8,35.7c0.5,3.6-6,7.5-14.5,8.6s-15.7-0.9-16.2-4.6c-0.5-3.6,6-7.5,14.5-8.6C41.1,30,48.3,32.1,48.8,35.7z"
		/>
	
		<radialGradient id="SVGID_3_" cx="87.1891" cy="109.0509" r="6.9211" gradientTransform="matrix(0.9503 0.3113 0.1557 -0.4752 -51.9967 52.7108)" gradientUnits="userSpaceOnUse">
		<stop  offset="0" style="stop-color:#FFB0A8"/>
		<stop  offset="1" style="stop-color:#FFB0A8;stop-opacity:0"/>
	</radialGradient>
	<path class="st3" d="M56.8,29.4c-0.3,2.1-4.5,3.2-9.5,2.5c-4.9-0.7-8.6-3-8.3-5.1c0.3-2.1,4.5-3.2,9.5-2.5
		C53.4,25,57.1,27.3,56.8,29.4z"/>
</g>
</svg>
