<?xml version="1.0" encoding="utf-8"?>
<!-- Generator: Adobe Illustrator 21.0.0, SVG Export Plug-In . SVG Version: 6.00 Build 0)  -->
<svg version="1.1" id="Layer_1" xmlns="http://www.w3.org/2000/svg" xmlns:xlink="http://www.w3.org/1999/xlink" x="0px" y="0px"
	 viewBox="0 0 80.4 83.1" style="enable-background:new 0 0 80.4 83.1;" xml:space="preserve">
<style type="text/css">
	.st0{fill:url(#SVGID_1_);}
	.st1{fill:#493307;}
	.st2{fill:#954520;}
	.st3{fill:#A64E11;}
	.st4{opacity:0.78;fill:url(#SVGID_2_);}
</style>
<g>
	
		<image style="overflow:visible;opacity:0.75;" width="107" height="111" xlink:href="7031457B.png"  transform="matrix(1 0 0 1 -8 -8.9)">
	</image>
	<g>
		<g>
			
				<linearGradient id="SVGID_1_" gradientUnits="userSpaceOnUse" x1="2.1412" y1="100.2391" x2="-11.4529" y2="73.0508" gradientTransform="matrix(6.123234e-17 -1 1 6.123234e-17 -33.4686 30.5893)">
				<stop  offset="0" style="stop-color:#47520C"/>
				<stop  offset="1" style="stop-color:#747305"/>
			</linearGradient>
			<path class="st0" d="M15.6,5.8c16-10.2,40.2-2.5,54.1,17.2S81.8,67,65.8,77.2s-40.2,2.5-54.1-17.2S-0.4,16,15.6,5.8z"/>
			<path class="st1" d="M32.1,6c4.2,4,2.3,12.3-4.2,18.4s-15.2,8-19.4,4S6.2,16.2,12.7,10S27.9,2,32.1,6z"/>
			<path class="st2" d="M9.6,29.5C13.9,8.9,23.5,7.8,34.3,11C35,25.8,14.8,34.2,9.6,29.5z"/>
			<path class="st3" d="M9.6,29.5c-3.3-2.7-5.5-7.1-6.3-9.1C3,19.7,3,19,3.2,18.3C8.2,4.1,16.1,4.7,18.1,5.1L34.3,11
				c-3.2-1.2-7.8-1.3-11.6,0.7C14.1,16.4,11.1,26.3,9.6,29.5z"/>
			
				<radialGradient id="SVGID_2_" cx="-16.1997" cy="103.9111" r="10.7827" gradientTransform="matrix(-0.1679 -0.8844 0.4649 -7.986230e-02 -34.6489 35.4719)" gradientUnits="userSpaceOnUse">
				<stop  offset="0" style="stop-color:#FFFFFF"/>
				<stop  offset="1" style="stop-color:#FFFFFF;stop-opacity:0"/>
			</radialGradient>
			<path class="st4" d="M14.1,29.3c3.3-0.6,7,4.5,8.3,11.2S22,53.2,18.7,53.7s-7-4.5-8.3-11.2S10.8,29.8,14.1,29.3z"/>
		</g>
	</g>
</g>
</svg>
