<?xml version="1.0" encoding="utf-8"?>
<!-- Generator: Adobe Illustrator 21.0.0, SVG Export Plug-In . SVG Version: 6.00 Build 0)  -->
<svg version="1.1" id="Layer_1" xmlns="http://www.w3.org/2000/svg" xmlns:xlink="http://www.w3.org/1999/xlink" x="0px" y="0px"
	 viewBox="0 0 160 280" style="enable-background:new 0 0 160 280;" xml:space="preserve">
<style type="text/css">
	.st0{opacity:0.75;}
	.st1{fill:#E6E7E8;}
	.st2{fill:#FFFFFF;}
</style>
<g class="st0">
	<g>
		<path class="st1" d="M160,12.4l-1.1,248.6c0,0-13.6,18.5-78.9,19.1c-65.3-0.6-77.9-19.1-77.9-19.1L0,12.4C0,12.4-2.5,1.7,80,0
			C161.5,0,160,12.4,160,12.4z"/>
	</g>
</g>
<path class="st2" d="M39.2,227L39.2,227c-2.7,0-4.9-1.3-4.9-2.9L30.8,72.5c0-1.6,2.1-2.9,4.8-2.9h0c2.7,0,4.9,1.3,4.9,2.9L44,224.1
	C44,225.7,41.9,227,39.2,227z"/>
<path class="st2" d="M39.3,231.6L39.3,231.6c-2.7,0-4.8,1.3-4.8,2.9l0,0c0,1.6,2.2,2.9,4.9,2.9h0c2.7,0,4.8-1.3,4.8-2.9l0,0
	C44.2,232.8,42,231.5,39.3,231.6z"/>
</svg>
