<?xml version="1.0" encoding="utf-8"?>
<!-- Generator: Adobe Illustrator 21.0.0, SVG Export Plug-In . SVG Version: 6.00 Build 0)  -->
<svg version="1.1" id="Layer_1" xmlns="http://www.w3.org/2000/svg" xmlns:xlink="http://www.w3.org/1999/xlink" x="0px" y="0px"
	 viewBox="0 0 106.8 120.6" style="enable-background:new 0 0 106.8 120.6;" xml:space="preserve">
<style type="text/css">
	.st0{opacity:0.75;}
	.st1{fill:#E6E7E8;}
	.st2{fill:#FFFFFF;}
</style>
<g class="st0">
	<path class="st1" d="M53.3,119.8c0,0-43.2-0.7-47.1-1.2s-5-13.9-5-13.9s0.3-101,0-101.6c4.5-2.2,96.6-2.8,104.3,0v101.7
		c0,0-1.1,13.3-5,13.9S53.3,119.8,53.3,119.8"/>
</g>
<path class="st2" d="M13.6,89.2L13.6,89.2c-0.8,0-1.4-0.6-1.4-1.4V38c0-0.8,0.6-1.4,1.4-1.4l0,0c0.8,0,1.4,0.6,1.4,1.4v49.8
	C15,88.6,14.4,89.2,13.6,89.2z"/>
</svg>
