<?xml version="1.0" encoding="utf-8"?>
<!-- Generator: Adobe Illustrator 21.0.0, SVG Export Plug-In . SVG Version: 6.00 Build 0)  -->
<svg version="1.1" id="Layer_1" xmlns="http://www.w3.org/2000/svg" xmlns:xlink="http://www.w3.org/1999/xlink" x="0px" y="0px"
	 viewBox="0 0 231.8 30.4" style="enable-background:new 0 0 231.8 30.4;" xml:space="preserve">
<style type="text/css">
	.st0{fill:#FFFFFF;}
</style>
<polygon class="st0" points="203.7,14.2 203,12.6 203.8,12.6 "/>
<polygon class="st0" points="194.3,14.2 193.6,12.5 194.5,12.5 "/>
<polygon class="st0" points="161.3,3.5 160.6,1.9 161.5,1.9 "/>
<polygon class="st0" points="163.8,14 163.1,12.4 164,12.4 "/>
<polygon class="st0" points="161.6,15.6 160.9,14 161.7,14 "/>
<polygon class="st0" points="102.7,11.5 104.4,12.6 103.6,12.9 "/>
<polygon class="st0" points="167.2,13.3 166.5,11.6 167.4,11.6 "/>
<polygon class="st0" points="154.3,8 153.6,6.4 154.5,6.4 "/>
<polygon class="st0" points="178.8,15.8 178.1,14.1 178.9,14.2 "/>
<polygon class="st0" points="118.8,10 120.5,11.1 119.8,11.4 "/>
<polygon class="st0" points="183.8,14 183.1,12.3 184,12.3 "/>
<polygon class="st0" points="123.9,7.7 125.6,8.8 124.8,9.2 "/>
<polygon class="st0" points="173.4,7.4 172.8,5.8 173.6,5.8 "/>
<polygon class="st0" points="102,6.5 103.7,7.6 103,7.9 "/>
<polygon class="st0" points="198.2,12 197.6,10.3 198.4,10.4 "/>
<polygon class="st0" points="188.5,11.9 187.8,10.2 188.6,10.2 "/>
<polygon class="st0" points="114.8,6.7 116.5,7.8 115.8,8.1 "/>
<polygon class="st0" points="168.8,13.3 170.5,14.4 169.7,14.7 "/>
<polygon class="st0" points="137.6,2.8 139.3,3.9 138.6,4.2 "/>
<polygon class="st0" points="136.1,7.4 137.8,8.5 137,8.8 "/>
<polygon class="st0" points="183.9,11.3 185.6,12.4 184.8,12.8 "/>
<polygon class="st0" points="145.7,3 147.4,4.1 146.7,4.4 "/>
<polygon class="st0" points="131,10.2 132.7,11.3 132,11.6 "/>
<polygon class="st0" points="144.2,10.9 145.9,12 145.2,12.3 "/>
<polygon class="st0" points="213.7,7.8 215.4,8.9 214.6,9.3 "/>
<polygon class="st0" points="118.8,7.1 120.5,8.2 119.7,8.5 "/>
<polygon class="st0" points="132,2.3 133.7,3.4 132.9,3.8 "/>
<polygon class="st0" points="204.7,14.1 204,12.4 204.9,12.5 "/>
<polygon class="st0" points="138.4,7.6 140.1,8.7 139.3,9 "/>
<polygon class="st0" points="148.8,7.6 150.5,8.7 149.8,9 "/>
<polygon class="st0" points="109.2,4.1 110.9,5.2 110.2,5.5 "/>
<polygon class="st0" points="122.3,10.6 124,11.7 123.2,12.1 "/>
<polygon class="st0" points="46.2,13.9 47.8,15.1 47,15.4 "/>
<polygon class="st0" points="47.8,11.3 49.5,12.5 48.7,12.8 "/>
<polygon class="st0" points="170.1,5.1 171.7,6.3 170.9,6.6 "/>
<polygon class="st0" points="162.1,9.9 163.7,11.1 163,11.4 "/>
<polygon class="st0" points="174.1,7.1 175.8,8.2 175,8.5 "/>
<polygon class="st0" points="186.7,5 188.3,6.2 187.5,6.5 "/>
<polygon class="st0" points="158.8,11.9 160.4,13.1 159.6,13.4 "/>
<polygon class="st0" points="180.1,14 181.7,15.2 180.9,15.5 "/>
<polygon class="st0" points="155.3,10.3 156.9,11.5 156.2,11.8 "/>
<polygon class="st0" points="194.3,4.3 195.9,5.4 195.2,5.7 "/>
<polygon class="st0" points="151.6,7.9 153.2,9.1 152.4,9.4 "/>
<polygon class="st0" points="169.5,7.2 171.1,8.4 170.3,8.7 "/>
<polygon class="st0" points="164.4,9.3 166,10.5 165.2,10.8 "/>
<polygon class="st0" points="189.8,10.3 191.4,11.5 190.6,11.7 "/>
<polygon class="st0" points="185,12.6 186.6,13.7 185.8,14 "/>
<polygon class="st0" points="147,11.8 148.6,12.9 147.8,13.2 "/>
<polygon class="st0" points="107.3,7.9 107.6,6.2 108.3,6.5 "/>
<polygon class="st0" points="101.2,13.7 101.4,12 102.2,12.3 "/>
<polygon class="st0" points="62.1,17 62.4,15.2 63.1,15.5 "/>
<polygon class="st0" points="70.2,15.1 70.4,13.4 71.2,13.7 "/>
<polygon class="st0" points="71.7,8.3 71.9,6.6 72.7,6.9 "/>
<polygon class="st0" points="137,6.4 138,8 137.1,8 "/>
<polygon class="st0" points="76.6,15.2 76.8,13.5 77.6,13.8 "/>
<polygon class="st0" points="63.6,6.4 63.8,4.7 64.6,5 "/>
<polygon class="st0" points="77.5,13.5 77.8,11.8 78.5,12.1 "/>
<polygon class="st0" points="153.2,7.3 154.2,8.9 153.3,9 "/>
<polygon class="st0" points="86,11.6 86.2,9.8 87,10.1 "/>
<polygon class="st0" points="199.7,3.8 200.7,5.4 199.9,5.5 "/>
<polygon class="st0" points="81.5,10.5 81.8,8.7 82.5,9.1 "/>
<polygon class="st0" points="172.1,6 173.1,7.6 172.3,7.6 "/>
<polygon class="st0" points="98,13.5 98.2,11.7 99,12 "/>
<polygon class="st0" points="90.7,11.2 90.9,9.4 91.7,9.8 "/>
<polygon class="st0" points="181.6,11.8 182.6,13.4 181.8,13.4 "/>
<polygon class="st0" points="196.6,12.3 197.5,13.9 196.7,14 "/>
<polygon class="st0" points="50.4,4 51.3,5.5 50.5,5.6 "/>
<polygon class="st0" points="177.9,7.3 178.9,8.9 178,8.9 "/>
<polygon class="st0" points="52.3,12.2 53.3,13.8 52.4,13.8 "/>
<polygon class="st0" points="58.5,5.3 59.5,6.9 58.6,6.9 "/>
<polygon class="st0" points="207.8,3.5 208.8,5 207.9,5.1 "/>
<polygon class="st0" points="55.2,11.2 56.2,12.8 55.3,12.9 "/>
<polygon class="st0" points="135.9,3 136.9,4.6 136.1,4.6 "/>
<polygon class="st0" points="66.6,6.2 67.6,7.8 66.7,7.9 "/>
<polygon class="st0" points="206.2,4.7 207.1,6.2 206.3,6.3 "/>
<polygon class="st0" points="99.8,6.6 100,4.8 100.8,5.1 "/>
<polygon class="st0" points="212.7,10.8 213.7,12.3 212.8,12.4 "/>
<polygon class="st0" points="60.3,10.6 61.3,12.1 60.4,12.2 "/>
<polygon class="st0" points="176.8,5 177.8,6.6 176.9,6.6 "/>
<polygon class="st0" points="191.3,5.2 192.3,6.8 191.4,6.9 "/>
<polygon class="st0" points="129.6,2.2 130.4,3.8 129.6,3.9 "/>
<polygon class="st0" points="134.2,2 135.1,3.6 134.2,3.6 "/>
<polygon class="st0" points="84.1,3.3 84.9,4.9 84,4.9 "/>
<polygon class="st0" points="75.1,3.8 76,5.4 75.1,5.4 "/>
<polygon class="st0" points="80,10.9 80.8,12.5 80,12.6 "/>
<polygon class="st0" points="93.4,3.7 94.3,5.3 93.4,5.4 "/>
<polygon class="st0" points="68.3,4.3 69.2,5.9 68.3,5.9 "/>
<polygon class="st0" points="88.9,9.2 89.7,10.8 88.9,10.8 "/>
<polygon class="st0" points="64.9,4 65.8,5.6 64.9,5.6 "/>
<polygon class="st0" points="110.9,5.3 111.8,6.9 110.9,7 "/>
<polygon class="st0" points="56.9,5.5 57.7,7.1 56.9,7.1 "/>
<polygon class="st0" points="118.1,4.6 119,6.2 118.1,6.2 "/>
<polygon class="st0" points="73.6,10.4 74.5,12 73.6,12 "/>
<polygon class="st0" points="96.1,9.3 97,10.9 96.1,11 "/>
<polygon class="st0" points="210.8,10.8 211.7,12.4 210.8,12.5 "/>
<polygon class="st0" points="53.5,6.9 54.4,8.5 53.5,8.6 "/>
<polygon class="st0" points="100.3,10.7 99.6,9 100.5,9 "/>
<polygon class="st0" points="84.6,10.8 83.9,9.1 84.8,9.2 "/>
<polygon class="st0" points="210.6,14.5 209.9,12.8 210.8,12.9 "/>
<polygon class="st0" points="217.3,12.8 216.7,11.2 217.5,11.2 "/>
<polygon class="st0" points="51.4,12.3 50.7,10.6 51.6,10.7 "/>
<polygon class="st0" points="185.7,14.3 187.4,15.4 186.6,15.7 "/>
<polygon class="st0" points="220.3,12 219.6,10.3 220.5,10.3 "/>
<polygon class="st0" points="45.5,13.7 44.8,12.1 45.7,12.1 "/>
<polygon class="st0" points="63.6,11.1 62.9,9.4 63.8,9.5 "/>
<polygon class="st0" points="31.4,11.5 33.1,12.6 32.3,12.9 "/>
<polygon class="st0" points="68.3,9.8 67.6,8.1 68.5,8.2 "/>
<polygon class="st0" points="30,13.2 31.7,14.3 30.9,14.6 "/>
<polygon class="st0" points="64.6,12.8 63.9,11.2 64.8,11.2 "/>
<polygon class="st0" points="186.1,13.4 187.8,14.5 187,14.9 "/>
<polygon class="st0" points="87.4,8.1 86.7,6.4 87.6,6.5 "/>
<polygon class="st0" points="73.3,7.7 72.6,6.1 73.5,6.1 "/>
<polygon class="st0" points="190.8,13.9 192.5,15 191.7,15.3 "/>
<polygon class="st0" points="193.3,13.1 195,14.2 194.3,14.5 "/>
<polygon class="st0" points="37.3,7.4 39,8.5 38.3,8.8 "/>
<polygon class="st0" points="36.6,12.8 38.3,14 37.5,14.3 "/>
<polygon class="st0" points="38,9.8 39.7,11 38.9,11.3 "/>
<polygon class="st0" points="41.2,7.6 42.9,8.7 42.1,9.1 "/>
<polygon class="st0" points="37.6,11.7 39.3,12.8 38.5,13.1 "/>
<polygon class="st0" points="203.3,9.8 205,10.9 204.2,11.2 "/>
<polygon class="st0" points="159.8,11.3 161.5,12.4 160.7,12.7 "/>
<polygon class="st0" points="43.7,6.6 45.4,7.7 44.6,8.1 "/>
<polygon class="st0" points="31.6,12 33.3,13.1 32.6,13.5 "/>
<polygon class="st0" points="97.2,9.7 96.5,8 97.4,8 "/>
<polygon class="st0" points="37.2,13.3 38.9,14.4 38.1,14.7 "/>
<polygon class="st0" points="43,13.3 44.7,14.4 43.9,14.8 "/>
<polygon class="st0" points="188.6,11.9 190.3,13 189.5,13.3 "/>
<polygon class="st0" points="33.1,12.3 34.8,13.4 34,13.8 "/>
<polygon class="st0" points="15.5,17.3 17.2,18.5 16.4,18.8 "/>
<polygon class="st0" points="4.7,16.3 6.3,17.4 5.5,17.7 "/>
<polygon class="st0" points="60.8,10.6 62.5,11.7 61.7,12 "/>
<polygon class="st0" points="52.9,15.7 54.5,16.9 53.7,17.2 "/>
<polygon class="st0" points="65.3,12.9 66.9,14.1 66.2,14.4 "/>
<polygon class="st0" points="77.4,10.7 79.1,11.9 78.3,12.2 "/>
<polygon class="st0" points="48.6,8.7 50.2,9.9 49.5,10.2 "/>
<polygon class="st0" points="70,10.7 71.6,11.9 70.8,12.2 "/>
<polygon class="st0" points="46.5,16.1 48.1,17.3 47.3,17.6 "/>
<polygon class="st0" points="88.1,9.6 89.7,10.7 88.9,11 "/>
<polygon class="st0" points="44.1,13.6 45.7,14.8 44.9,15.1 "/>
<polygon class="st0" points="97.4,7 99,8.2 98.2,8.5 "/>
<polygon class="st0" points="55.6,15 57.2,16.2 56.4,16.5 "/>
<polygon class="st0" points="74.7,6.5 76.3,7.6 75.5,7.9 "/>
<polygon class="st0" points="201.4,12.7 203.1,13.8 202.3,14.1 "/>
<polygon class="st0" points="203.9,10.3 205.6,11.5 204.8,11.8 "/>
<polygon class="st0" points="25.6,13.6 25.9,11.8 26.6,12.1 "/>
<polygon class="st0" points="178.8,5.3 179,3.5 179.8,3.8 "/>
<polygon class="st0" points="10,12.8 10.2,11 11,11.3 "/>
<polygon class="st0" points="25.9,18.9 26.1,17.2 26.9,17.5 "/>
<polygon class="st0" points="15.3,12.7 15.6,11 16.3,11.3 "/>
<polygon class="st0" points="59.4,5.9 60.3,7.5 59.5,7.6 "/>
<polygon class="st0" points="29.3,19 29.5,17.2 30.3,17.6 "/>
<polygon class="st0" points="8,14.4 8.2,12.7 9,13 "/>
<polygon class="st0" points="29.5,17.7 29.7,16 30.4,16.3 "/>
<polygon class="st0" points="76,7.3 77,8.8 76.1,8.9 "/>
<polygon class="st0" points="21.6,17 21.8,15.3 22.6,15.6 "/>
<polygon class="st0" points="95.6,8.9 96.6,10.4 95.7,10.5 "/>
<polygon class="st0" points="20.5,15.6 20.7,13.9 21.5,14.2 "/>
<polygon class="st0" points="62.9,11.8 63.9,13.4 63,13.5 "/>
<polygon class="st0" points="36.7,17.9 36.9,16.1 37.7,16.4 "/>
<polygon class="st0" points="22.8,16.5 23.1,14.7 23.8,15 "/>
<polygon class="st0" points="71.9,8.4 72.9,9.9 72,10 "/>
<polygon class="st0" points="89.8,8.8 90.8,10.3 89.9,10.4 "/>
<polygon class="st0" points="2.4,10.8 3.4,12.4 2.5,12.4 "/>
<polygon class="st0" points="110,7 111,8.5 110.1,8.6 "/>
<polygon class="st0" points="6.6,17.2 7.5,18.8 6.7,18.9 "/>
<polygon class="st0" points="5.4,13.2 6.4,14.8 5.6,14.8 "/>
<polygon class="st0" points="107.5,8.3 108.5,9.9 107.6,9.9 "/>
<polygon class="st0" points="7.4,16.3 8.4,17.8 7.5,17.9 "/>
<polygon class="st0" points="197.1,13.8 198.1,15.3 197.2,15.4 "/>
<polygon class="st0" points="12.8,10.4 13.7,12 12.9,12.1 "/>
<polygon class="st0" points="105.4,10.1 106.4,11.6 105.5,11.7 "/>
<polygon class="st0" points="185.6,14 185.8,12.2 186.6,12.5 "/>
<polygon class="st0" points="114.5,7 115.4,8.6 114.6,8.7 "/>
<polygon class="st0" points="9.9,15.6 10.9,17.2 10,17.2 "/>
<polygon class="st0" points="67.6,10.4 68.5,12 67.7,12.1 "/>
<polygon class="st0" points="82.5,11 83.4,12.5 82.6,12.6 "/>
<polygon class="st0" points="33.5,6 34.3,7.6 33.5,7.6 "/>
<polygon class="st0" points="35.6,5.6 36.5,7.2 35.6,7.2 "/>
<polygon class="st0" points="17.8,10.7 18.7,12.3 17.8,12.4 "/>
<polygon class="st0" points="13.6,11.5 14.4,13.1 13.6,13.1 "/>
<polygon class="st0" points="19.8,16.2 20.7,17.8 19.8,17.8 "/>
<polygon class="st0" points="20.8,12.1 21.7,13.7 20.8,13.7 "/>
<polygon class="st0" points="10.2,12.2 11,13.8 10.2,13.8 "/>
<polygon class="st0" points="22.7,14.7 23.6,16.3 22.7,16.4 "/>
<polygon class="st0" points="8.5,11.4 9.3,13 8.5,13 "/>
<polygon class="st0" points="25.5,9.5 26.3,11.1 25.5,11.1 "/>
<polygon class="st0" points="4.7,13.4 5.5,15 4.7,15.1 "/>
<polygon class="st0" points="27.6,8.9 28.4,10.5 27.6,10.5 "/>
<polygon class="st0" points="16.4,15.8 17.3,17.4 16.4,17.4 "/>
<polygon class="st0" points="25.3,14.9 26.2,16.6 25.3,16.6 "/>
<polygon class="st0" points="106.3,6.6 107.2,8.3 106.3,8.3 "/>
<polygon class="st0" points="6.9,11.1 7.8,12.7 6.9,12.7 "/>
<polygon class="st0" points="226.8,13.4 226.1,11.8 227,11.8 "/>
<polygon class="st0" points="222.1,13.3 221.4,11.6 222.3,11.7 "/>
<polygon class="st0" points="185.8,9.3 185.1,7.7 186,7.7 "/>
<polygon class="st0" points="199.3,19.3 198.6,17.6 199.5,17.6 "/>
<polygon class="st0" points="195.8,14.4 195.1,12.8 195.9,12.8 "/>
<polygon class="st0" points="146.7,5.2 148.4,6.3 147.6,6.6 "/>
<polygon class="st0" points="202.7,19 202,17.3 202.9,17.3 "/>
<polygon class="st0" points="182.3,5.3 181.6,3.6 182.5,3.7 "/>
<polygon class="st0" points="213.8,19.5 213.1,17.8 213.9,17.9 "/>
<polygon class="st0" points="158.2,4.2 159.9,5.3 159.1,5.6 "/>
<polygon class="st0" points="217.1,19 216.5,17.3 217.3,17.4 "/>
<polygon class="st0" points="162.8,2.7 164.5,3.8 163.7,4.1 "/>
<polygon class="st0" points="209,15.4 208.3,13.7 209.2,13.8 "/>
<polygon class="st0" points="150.1,6.5 151.8,7.6 151.1,8 "/>
<polygon class="st0" points="224.4,18.2 223.7,16.5 224.5,16.6 "/>
<polygon class="st0" points="219.7,18.2 219,16.5 219.9,16.5 "/>
<polygon class="st0" points="159.5,6.3 161.2,7.5 160.4,7.8 "/>
<polygon class="st0" points="164.6,6.1 166.3,7.2 165.5,7.5 "/>
<polygon class="st0" points="172.7,9 174.4,10.1 173.6,10.4 "/>
<polygon class="st0" points="170.2,6.4 171.9,7.5 171.2,7.8 "/>
<polygon class="st0" points="175.5,12.2 177.2,13.3 176.4,13.7 "/>
<polygon class="st0" points="180.8,9.3 182.5,10.4 181.7,10.8 "/>
<polygon class="st0" points="165.6,8.9 167.3,10 166.6,10.4 "/>
<polygon class="st0" points="178.4,9.9 180.1,11 179.4,11.3 "/>
<polygon class="st0" points="228.5,20.3 230.2,21.4 229.5,21.8 "/>
<polygon class="st0" points="185.4,7.8 187.1,8.9 186.4,9.2 "/>
<polygon class="st0" points="166.2,1.4 167.9,2.5 167.1,2.8 "/>
<polygon class="st0" points="227.8,18.9 227.1,17.3 228,17.3 "/>
<polygon class="st0" points="166.8,4.9 168.5,6 167.7,6.4 "/>
<polygon class="st0" points="183.4,6.4 185.1,7.5 184.4,7.8 "/>
<polygon class="st0" points="154.8,5.9 156.5,7 155.7,7.3 "/>
<polygon class="st0" points="161.1,4.5 162.8,5.6 162.1,5.9 "/>
<polygon class="st0" points="76.7,10.5 78.3,11.6 77.5,11.9 "/>
<polygon class="st0" points="79.2,8.9 80.8,10.1 80,10.4 "/>
<polygon class="st0" points="205.2,12.8 206.8,14 206,14.3 "/>
<polygon class="st0" points="196.3,8.6 197.9,9.8 197.1,10.1 "/>
<polygon class="st0" points="209.7,15 211.3,16.2 210.5,16.5 "/>
<polygon class="st0" points="218.4,13 220,14.2 219.2,14.5 "/>
<polygon class="st0" points="193.4,10.9 195,12 194.2,12.3 "/>
<polygon class="st0" points="214.7,12.8 216.3,14 215.5,14.3 "/>
<polygon class="st0" points="189.9,9 191.5,10.2 190.8,10.5 "/>
<polygon class="st0" points="222.6,12 224.2,13.1 223.4,13.4 "/>
<polygon class="st0" points="179.6,5 181.2,6.2 180.4,6.5 "/>
<polygon class="st0" points="225.9,9.3 227.6,10.4 226.8,10.7 "/>
<polygon class="st0" points="199.9,16.4 201.5,17.6 200.7,17.9 "/>
<polygon class="st0" points="219.3,9.3 220.9,10.5 220.1,10.8 "/>
<polygon class="st0" points="202.2,17.4 203.9,18.5 203.1,18.8 "/>
<polygon class="st0" points="207.3,16.5 208.9,17.7 208.2,18 "/>
<polygon class="st0" points="192.5,14.3 192.8,12.6 193.5,12.9 "/>
<polygon class="st0" points="141.3,12.2 141.6,10.4 142.3,10.7 "/>
<polygon class="st0" points="97.7,5.6 97.9,3.9 98.7,4.2 "/>
<polygon class="st0" points="115.8,13.5 116.1,11.8 116.8,12.1 "/>
<polygon class="st0" points="113.2,5.4 113.5,3.6 114.2,4 "/>
<polygon class="st0" points="203.7,6.8 204.6,8.3 203.8,8.4 "/>
<polygon class="st0" points="123.5,13.7 123.7,12 124.5,12.3 "/>
<polygon class="st0" points="106.7,12.1 106.9,10.4 107.7,10.7 "/>
<polygon class="st0" points="128.8,7.1 129,5.3 129.8,5.6 "/>
<polygon class="st0" points="217.8,9.1 218.7,10.6 217.9,10.7 "/>
<polygon class="st0" points="135.5,5.6 135.8,3.9 136.5,4.2 "/>
<polygon class="st0" points="225,11.4 226,13 225.2,13 "/>
<polygon class="st0" points="128.1,8.8 128.3,7.1 129.1,7.4 "/>
<polygon class="st0" points="206.3,4.8 207.3,6.4 206.4,6.5 "/>
<polygon class="st0" points="143.6,6.8 143.9,5 144.6,5.4 "/>
<polygon class="st0" points="138.5,5.2 138.7,3.5 139.5,3.8 "/>
<polygon class="st0" points="215.4,10.6 216.4,12.1 215.5,12.2 "/>
<polygon class="st0" points="222.7,11.3 223.6,12.9 222.8,12.9 "/>
<polygon class="st0" points="87.1,8 88,9.6 87.2,9.6 "/>
<polygon class="st0" points="228.2,14.3 229.1,15.9 228.3,16 "/>
<polygon class="st0" points="89,10.9 90,12.5 89.1,12.6 "/>
<polygon class="st0" points="99.5,11.5 100.5,13.1 99.6,13.1 "/>
<polygon class="st0" points="227.8,15.7 228.8,17.3 227.9,17.4 "/>
<polygon class="st0" points="93.7,9.9 94.6,11.4 93.8,11.5 "/>
<polygon class="st0" points="171.3,6 172.3,7.6 171.5,7.6 "/>
<polygon class="st0" points="154.9,11 155.9,12.5 155,12.6 "/>
<polygon class="st0" points="227.4,17.5 228.4,19.1 227.5,19.1 "/>
<polygon class="st0" points="148.4,7.7 148.6,5.9 149.4,6.3 "/>
<polygon class="st0" points="228.3,14.6 229.3,16.2 228.5,16.3 "/>
<polygon class="st0" points="101.3,9.2 102.3,10.8 101.4,10.8 "/>
<polygon class="st0" points="211.9,12.6 212.9,14.2 212,14.2 "/>
<polygon class="st0" points="221.3,13.2 222.2,14.8 221.4,14.8 "/>
<polygon class="st0" points="164.6,7 165.4,8.6 164.6,8.6 "/>
<polygon class="st0" points="169.7,6.3 170.5,7.9 169.7,7.9 "/>
<polygon class="st0" points="130.5,7.5 131.4,9.1 130.5,9.1 "/>
<polygon class="st0" points="122.5,8.5 123.3,10.1 122.5,10.1 "/>
<polygon class="st0" points="126.5,9.3 127.4,10.9 126.5,10.9 "/>
<polygon class="st0" points="137,9.4 137.8,11 137,11 "/>
<polygon class="st0" points="114.4,9.5 115.3,11.1 114.4,11.2 "/>
<polygon class="st0" points="133.3,7.8 134.1,9.4 133.3,9.4 "/>
<polygon class="st0" points="109.3,8.6 110.2,10.2 109.3,10.3 "/>
<polygon class="st0" points="191.5,10.3 192.4,11.9 191.5,11.9 "/>
<polygon class="st0" points="97,11.7 97.9,13.3 97,13.4 "/>
<polygon class="st0" points="153.2,11.3 154.1,12.9 153.2,12.9 "/>
<polygon class="st0" points="120.1,9 121,10.6 120.1,10.6 "/>
<polygon class="st0" points="138,7.9 138.8,9.6 138,9.6 "/>
<polygon class="st0" points="228.2,21.4 229,23.1 228.2,23.1 "/>
<polygon class="st0" points="86.5,4.1 87.4,5.7 86.5,5.7 "/>
<polygon class="st0" points="226.6,13.2 226.1,12.3 226.7,12.4 "/>
<polygon class="st0" points="215.9,13 215.4,12.1 216.1,12.1 "/>
<polygon class="st0" points="176.2,15.9 175.7,15 176.3,15 "/>
<polygon class="st0" points="183.3,12.3 182.8,11.4 183.4,11.4 "/>
<polygon class="st0" points="180.6,14.5 180.2,13.6 180.8,13.7 "/>
<polygon class="st0" points="109,13.9 110.2,14.5 109.6,14.7 "/>
<polygon class="st0" points="186.7,11.9 186.2,11 186.8,11 "/>
<polygon class="st0" points="172.5,6.9 172,6 172.7,6 "/>
<polygon class="st0" points="199.5,15.2 199.1,14.3 199.7,14.3 "/>
<polygon class="st0" points="134.8,9.1 136,9.7 135.5,9.9 "/>
<polygon class="st0" points="205,12.5 204.5,11.6 205.1,11.6 "/>
<polygon class="st0" points="139.9,7.4 141.1,7.9 140.5,8.1 "/>
<polygon class="st0" points="192.9,6.2 192.5,5.3 193.1,5.3 "/>
<polygon class="st0" points="109.1,5.3 110.3,5.9 109.7,6.1 "/>
<polygon class="st0" points="220.7,10.4 220.2,9.5 220.8,9.5 "/>
<polygon class="st0" points="210.1,10.2 209.6,9.3 210.2,9.3 "/>
<polygon class="st0" points="140.5,3.1 141.7,3.7 141.2,3.9 "/>
<polygon class="st0" points="184.8,13.1 186,13.7 185.4,13.9 "/>
<polygon class="st0" points="124.1,5.5 125.3,6.1 124.8,6.3 "/>
<polygon class="st0" points="153.3,6.5 154.5,7 154,7.2 "/>
<polygon class="st0" points="158.6,13.3 159.8,13.9 159.2,14.1 "/>
<polygon class="st0" points="132.2,5.4 133.4,6 132.8,6.2 "/>
<polygon class="st0" points="148.7,9.1 149.9,9.7 149.3,9.9 "/>
<polygon class="st0" points="162.7,9.6 163.9,10.2 163.4,10.4 "/>
<polygon class="st0" points="137.3,5 138.5,5.6 137.9,5.8 "/>
<polygon class="st0" points="143.2,6.3 144.5,6.8 143.9,7 "/>
<polygon class="st0" points="156,7.3 157.2,7.9 156.7,8.1 "/>
<polygon class="st0" points="168.2,7.1 169.4,7.7 168.9,7.9 "/>
<polygon class="st0" points="173.2,11.4 174.4,12 173.9,12.2 "/>
<polygon class="st0" points="138.2,9.9 139.4,10.5 138.9,10.7 "/>
<polygon class="st0" points="55.4,14.4 56.5,15.1 56,15.2 "/>
<polygon class="st0" points="57.4,11.2 58.6,11.9 58,12 "/>
<polygon class="st0" points="158.7,8.4 159.8,9 159.3,9.2 "/>
<polygon class="st0" points="181.9,8.6 183,9.2 182.5,9.4 "/>
<polygon class="st0" points="195.2,6.6 196.4,7.2 195.8,7.4 "/>
<polygon class="st0" points="208.2,3.7 209.3,4.4 208.7,4.5 "/>
<polygon class="st0" points="178.1,11.4 179.3,12.1 178.7,12.2 "/>
<polygon class="st0" points="201.2,13.7 202.3,14.3 201.8,14.5 "/>
<polygon class="st0" points="174.3,9.2 175.4,9.8 174.8,10 "/>
<polygon class="st0" points="217.3,10.7 218.4,11.4 217.9,11.5 "/>
<polygon class="st0" points="170.1,7.4 171.3,8.1 170.7,8.2 "/>
<polygon class="st0" points="224.5,10.3 225.6,11 225.1,11.1 "/>
<polygon class="st0" points="184.6,8.4 185.8,9 185.2,9.2 "/>
<polygon class="st0" points="212.1,9.1 213.3,9.8 212.7,9.9 "/>
<polygon class="st0" points="159.7,14.2 160.8,14.8 160.2,15 "/>
<polygon class="st0" points="165.1,11.1 166.2,11.7 165.7,11.9 "/>
<polygon class="st0" points="169.5,14.8 169.7,13.9 170.3,14.1 "/>
<polygon class="st0" points="123.7,6 123.9,5 124.4,5.2 "/>
<polygon class="st0" points="74.9,10.5 75.1,9.5 75.6,9.7 "/>
<polygon class="st0" points="83.8,8.2 83.9,7.3 84.5,7.4 "/>
<polygon class="st0" points="78.6,7.4 78.8,6.4 79.4,6.6 "/>
<polygon class="st0" points="157.1,4.3 157.8,5.2 157.2,5.2 "/>
<polygon class="st0" points="88,9.1 88.2,8.1 88.8,8.3 "/>
<polygon class="st0" points="69.6,4.2 69.8,3.2 70.3,3.4 "/>
<polygon class="st0" points="88.8,14.8 89,13.9 89.5,14 "/>
<polygon class="st0" points="175,4.6 175.7,5.4 175.1,5.5 "/>
<polygon class="st0" points="102.6,13.1 102.8,12.1 103.3,12.3 "/>
<polygon class="st0" points="222.6,10.5 223.3,11.3 222.7,11.3 "/>
<polygon class="st0" points="90.2,9.4 90.4,8.4 90.9,8.6 "/>
<polygon class="st0" points="192.2,4.8 192.9,5.6 192.3,5.7 "/>
<polygon class="st0" points="101.1,15.2 101.3,14.2 101.9,14.4 "/>
<polygon class="st0" points="108.6,12.5 108.7,11.5 109.3,11.7 "/>
<polygon class="st0" points="202.2,11.9 202.9,12.8 202.3,12.8 "/>
<polygon class="st0" points="219.2,12 219.9,12.8 219.3,12.9 "/>
<polygon class="st0" points="59.8,3 60.5,3.8 59.9,3.8 "/>
<polygon class="st0" points="61.8,12.1 62.5,13 61.8,13 "/>
<polygon class="st0" points="64.1,3.9 64.8,4.8 64.2,4.8 "/>
<polygon class="st0" points="68,5.2 68.7,6 68.1,6.1 "/>
<polygon class="st0" points="153.1,2.8 153.8,3.7 153.2,3.7 "/>
<polygon class="st0" points="73.1,5.4 73.8,6.3 73.2,6.3 "/>
<polygon class="st0" points="105.9,5.5 106.1,4.5 106.6,4.7 "/>
<polygon class="st0" points="72.2,3.8 72.9,4.7 72.3,4.7 "/>
<polygon class="st0" points="197.8,3.7 198.4,4.6 197.8,4.6 "/>
<polygon class="st0" points="214.1,10.9 214.8,11.8 214.2,11.8 "/>
<polygon class="st0" points="145.8,0.5 146.4,1.4 145.8,1.4 "/>
<polygon class="st0" points="119.7,5.1 120.3,6 119.7,6 "/>
<polygon class="st0" points="92.6,1.8 93.2,2.7 92.6,2.7 "/>
<polygon class="st0" points="81.2,2.7 81.8,3.6 81.2,3.6 "/>
<polygon class="st0" points="95.2,2.9 95.8,3.7 95.2,3.8 "/>
<polygon class="st0" points="105,1.8 105.6,2.6 105,2.7 "/>
<polygon class="st0" points="75.6,3 76.2,3.9 75.6,3.9 "/>
<polygon class="st0" points="99.2,9.2 99.8,10.1 99.2,10.1 "/>
<polygon class="st0" points="71.4,2.8 72,3.6 71.4,3.7 "/>
<polygon class="st0" points="122.9,3.4 123.5,4.3 122.9,4.3 "/>
<polygon class="st0" points="63.3,4.5 63.9,5.4 63.3,5.4 "/>
<polygon class="st0" points="133.5,2 134.1,2.8 133.5,2.9 "/>
<polygon class="st0" points="86.3,4.2 86.9,5.1 86.3,5.1 "/>
<polygon class="st0" points="114.8,1.9 115.4,2.8 114.8,2.8 "/>
<polygon class="st0" points="62.5,6.5 63.1,7.4 62.5,7.4 "/>
<polygon class="st0" points="122.7,11.7 122.2,10.8 122.8,10.8 "/>
<polygon class="st0" points="101.4,11.7 100.9,10.8 101.5,10.8 "/>
<polygon class="st0" points="219.9,14.3 219.4,13.4 220,13.4 "/>
<polygon class="st0" points="67.1,11.9 66.6,11 67.2,11 "/>
<polygon class="st0" points="60.7,11.6 60.2,10.7 60.8,10.8 "/>
<polygon class="st0" points="191.4,10.7 192.6,11.3 192,11.5 "/>
<polygon class="st0" points="70.5,11.3 70,10.4 70.6,10.5 "/>
<polygon class="st0" points="54.4,13.4 53.9,12.5 54.5,12.5 "/>
<polygon class="st0" points="82,13 81.5,12.1 82.2,12.2 "/>
<polygon class="st0" points="35.4,16.2 36.6,16.8 36.1,17 "/>
<polygon class="st0" points="87.5,11.8 87,10.9 87.7,10.9 "/>
<polygon class="st0" points="37.9,13.6 39.1,14.1 38.5,14.3 "/>
<polygon class="st0" points="72.2,6.5 71.7,5.6 72.4,5.6 "/>
<polygon class="st0" points="193.2,13.9 194.4,14.5 193.8,14.6 "/>
<polygon class="st0" points="90.7,6.2 90.2,5.3 90.8,5.3 "/>
<polygon class="st0" points="85.1,6.3 84.7,5.4 85.3,5.4 "/>
<polygon class="st0" points="198.3,14.4 199.5,15 198.9,15.2 "/>
<polygon class="st0" points="201.2,13.4 202.4,14 201.9,14.2 "/>
<polygon class="st0" points="45.6,6.9 46.8,7.4 46.3,7.6 "/>
<polygon class="st0" points="44.5,13.1 45.7,13.7 45.2,13.9 "/>
<polygon class="st0" points="46.7,10.7 48,11.3 47.4,11.5 "/>
<polygon class="st0" points="49.9,7.7 51.1,8.2 50.6,8.4 "/>
<polygon class="st0" points="42.1,16.9 43.3,17.5 42.7,17.7 "/>
<polygon class="st0" points="211.6,10.6 212.8,11.2 212.3,11.4 "/>
<polygon class="st0" points="132.3,12.6 133.5,13.2 133,13.4 "/>
<polygon class="st0" points="52.4,5.8 53.6,6.4 53.1,6.5 "/>
<polygon class="st0" points="39.6,12.7 40.8,13.3 40.2,13.5 "/>
<polygon class="st0" points="100.1,6.8 99.6,5.9 100.2,5.9 "/>
<polygon class="st0" points="45.5,13.6 46.7,14.2 46.2,14.4 "/>
<polygon class="st0" points="51.8,13.8 53,14.4 52.4,14.5 "/>
<polygon class="st0" points="195.7,12.8 196.9,13.4 196.3,13.6 "/>
<polygon class="st0" points="36.7,16.9 37.9,17.5 37.4,17.7 "/>
<polygon class="st0" points="18.3,17.3 19.5,18 18.9,18.1 "/>
<polygon class="st0" points="7.9,15.6 9,16.2 8.5,16.4 "/>
<polygon class="st0" points="74.1,3.6 75.2,4.2 74.7,4.4 "/>
<polygon class="st0" points="65.3,10.3 66.5,10.9 65.9,11.1 "/>
<polygon class="st0" points="73.6,6.9 74.8,7.5 74.2,7.7 "/>
<polygon class="st0" points="94.5,2.7 95.6,3.4 95.1,3.5 "/>
<polygon class="st0" points="58.2,9.3 59.4,10 58.8,10.1 "/>
<polygon class="st0" points="85,14.8 86.2,15.4 85.6,15.6 "/>
<polygon class="st0" points="218,9.9 219.2,10.6 218.6,10.7 "/>
<polygon class="st0" points="104.3,2.1 105.4,2.7 104.9,2.9 "/>
<polygon class="st0" points="53.2,14.2 54.4,14.8 53.8,15 "/>
<polygon class="st0" points="113.3,5.7 114.4,6.4 113.9,6.5 "/>
<polygon class="st0" points="68,9.4 69.2,10 68.6,10.2 "/>
<polygon class="st0" points="98.1,9.6 99.2,10.2 98.7,10.4 "/>
<polygon class="st0" points="210.2,12.8 211.3,13.5 210.8,13.6 "/>
<polygon class="st0" points="212.7,11.4 213.8,12 213.3,12.2 "/>
<polygon class="st0" points="32.6,13.1 32.7,12.2 33.3,12.3 "/>
<polygon class="st0" points="191,11.6 191.2,10.6 191.7,10.8 "/>
<polygon class="st0" points="15.2,11.5 15.4,10.6 15.9,10.8 "/>
<polygon class="st0" points="20.3,18.9 20.5,18 21,18.2 "/>
<polygon class="st0" points="21,11.7 21.2,10.7 21.7,10.9 "/>
<polygon class="st0" points="65.8,5 66.5,5.8 65.9,5.8 "/>
<polygon class="st0" points="35.4,17.7 35.6,16.8 36.1,17 "/>
<polygon class="st0" points="13.2,11.9 13.4,11 13.9,11.1 "/>
<polygon class="st0" points="24.3,17.4 24.5,16.4 25,16.6 "/>
<polygon class="st0" points="82.9,7.2 83.6,8 83,8.1 "/>
<polygon class="st0" points="186.5,12.1 186.7,11.2 187.2,11.3 "/>
<polygon class="st0" points="108.1,8.6 108.8,9.5 108.1,9.5 "/>
<polygon class="st0" points="26.6,13.4 26.7,12.5 27.3,12.6 "/>
<polygon class="st0" points="76.9,5.6 77.6,6.5 77,6.5 "/>
<polygon class="st0" points="189.9,12 190.1,11.1 190.6,11.2 "/>
<polygon class="st0" points="188.2,13 188.4,12.1 188.9,12.3 "/>
<polygon class="st0" points="85.6,11.1 86.3,11.9 85.7,12 "/>
<polygon class="st0" points="107.3,10.2 108,11 107.3,11.1 "/>
<polygon class="st0" points="5.9,8.7 6.6,9.6 6,9.6 "/>
<polygon class="st0" points="121.2,6 121.9,6.8 121.3,6.9 "/>
<polygon class="st0" points="10.5,17.4 11.2,18.2 10.6,18.2 "/>
<polygon class="st0" points="10.7,12 11.3,12.8 10.7,12.9 "/>
<polygon class="st0" points="117.4,7.9 118.1,8.7 117.5,8.8 "/>
<polygon class="st0" points="12.6,15.7 13.3,16.5 12.7,16.6 "/>
<polygon class="st0" points="204.9,14.4 205.6,15.2 205,15.3 "/>
<polygon class="st0" points="14.9,13.4 15.6,14.2 15,14.3 "/>
<polygon class="st0" points="127.5,1.9 128.2,2.8 127.6,2.8 "/>
<polygon class="st0" points="192.1,13.8 192.3,12.8 192.8,13 "/>
<polygon class="st0" points="129.5,6.8 130.2,7.6 129.6,7.6 "/>
<polygon class="st0" points="15.1,14.6 15.8,15.4 15.2,15.4 "/>
<polygon class="st0" points="80.3,4.2 81,5.1 80.4,5.1 "/>
<polygon class="st0" points="99.8,3 100.5,3.8 99.9,3.9 "/>
<polygon class="st0" points="40.8,5 41.4,5.9 40.8,5.9 "/>
<polygon class="st0" points="43.8,4.1 44.4,4.9 43.7,4.9 "/>
<polygon class="st0" points="23.8,8.8 24.4,9.7 23.8,9.7 "/>
<polygon class="st0" points="19.6,9.5 20.2,10.3 19.6,10.3 "/>
<polygon class="st0" points="25.9,15.8 26.5,16.7 25.9,16.7 "/>
<polygon class="st0" points="25.9,6.7 26.5,7.6 25.9,7.6 "/>
<polygon class="st0" points="15.8,10 16.4,10.9 15.8,10.9 "/>
<polygon class="st0" points="188.1,11.9 188.7,12.8 188.1,12.8 "/>
<polygon class="st0" points="14.1,9.4 14.7,10.3 14,10.3 "/>
<polygon class="st0" points="32.4,10.2 33,11.1 32.4,11.1 "/>
<polygon class="st0" points="9.9,12.2 10.5,13 9.9,13 "/>
<polygon class="st0" points="34.9,9 35.5,9.9 34.9,9.9 "/>
<polygon class="st0" points="22,14.9 22.6,15.8 22,15.8 "/>
<polygon class="st0" points="30.5,10.9 31.1,11.8 30.5,11.8 "/>
<polygon class="st0" points="114.1,5.3 114.7,6.2 114.1,6.2 "/>
<polygon class="st0" points="7.8,14.4 8.4,15.2 7.8,15.2 "/>
<polygon class="st0" points="214.5,18.6 214,17.7 214.7,17.7 "/>
<polygon class="st0" points="221.7,17.8 221.3,16.9 221.9,16.9 "/>
<polygon class="st0" points="218.2,12.8 217.7,11.9 218.3,11.9 "/>
<polygon class="st0" points="164.4,4.6 165.6,5.2 165,5.4 "/>
<polygon class="st0" points="225.6,17.3 225.1,16.4 225.7,16.4 "/>
<polygon class="st0" points="211,15.1 210.6,14.2 211.2,14.2 "/>
<polygon class="st0" points="166.2,5.8 167.4,6.4 166.9,6.6 "/>
<polygon class="st0" points="171.3,4.8 172.5,5.4 171.9,5.6 "/>
<polygon class="st0" points="168.2,6 169.4,6.6 168.9,6.8 "/>
<polygon class="st0" points="200.3,17.7 201.5,18.2 201,18.4 "/>
<polygon class="st0" points="205.4,17.2 206.6,17.7 206.1,17.9 "/>
<polygon class="st0" points="193.8,7.8 195,8.4 194.4,8.6 "/>
<polygon class="st0" points="190.9,5.9 192.1,6.5 191.6,6.7 "/>
<polygon class="st0" points="196.2,11.5 197.4,12.1 196.8,12.3 "/>
<polygon class="st0" points="203.1,8 204.3,8.6 203.8,8.8 "/>
<polygon class="st0" points="185.4,7.9 186.6,8.5 186.1,8.7 "/>
<polygon class="st0" points="199.5,9 200.7,9.6 200.2,9.7 "/>
<polygon class="st0" points="207.4,7 208.6,7.6 208,7.8 "/>
<polygon class="st0" points="181.8,14.6 183,15.2 182.4,15.4 "/>
<polygon class="st0" points="187.5,4.5 188.7,5.1 188.1,5.2 "/>
<polygon class="st0" points="205,5.9 206.2,6.5 205.6,6.7 "/>
<polygon class="st0" points="173.3,5.2 174.5,5.8 174,6 "/>
<polygon class="st0" points="169.6,6 170.8,6.6 170.3,6.8 "/>
<polygon class="st0" points="85.3,7 86.4,7.7 85.9,7.8 "/>
<polygon class="st0" points="87.4,6.7 88.6,7.4 88,7.5 "/>
<polygon class="st0" points="219.1,7.8 220.2,8.5 219.7,8.6 "/>
<polygon class="st0" points="215.7,10.2 216.9,10.8 216.3,11 "/>
<polygon class="st0" points="212.3,8.2 213.4,8.8 212.9,8.9 "/>
<polygon class="st0" points="208.6,15.2 209.8,15.8 209.2,16 "/>
<polygon class="st0" points="223.1,15.4 224.2,16 223.7,16.2 "/>
<polygon class="st0" points="191,7.2 192.1,7.8 191.5,8 "/>
<polygon class="st0" points="203.6,17.1 204.7,17.7 204.1,17.9 "/>
<polygon class="st0" points="167.1,15.3 167.3,14.4 167.8,14.5 "/>
<polygon class="st0" points="158.9,10.6 159.1,9.7 159.6,9.9 "/>
<polygon class="st0" points="104.2,5.4 104.4,4.4 104.9,4.6 "/>
<polygon class="st0" points="131.3,11.7 131.4,10.7 132,10.9 "/>
<polygon class="st0" points="178,12.6 178.2,11.7 178.7,11.9 "/>
<polygon class="st0" points="226.6,15.4 227.3,16.2 226.7,16.3 "/>
<polygon class="st0" points="139.4,12.2 139.5,11.3 140.1,11.4 "/>
<polygon class="st0" points="129.2,3.6 129.4,2.6 129.9,2.8 "/>
<polygon class="st0" points="145,5.4 145.2,4.4 145.8,4.6 "/>
<polygon class="st0" points="151,4.4 151.1,3.5 151.7,3.7 "/>
<polygon class="st0" points="144.8,7.7 145,6.8 145.5,6.9 "/>
<polygon class="st0" points="161.2,5.3 161.4,4.3 161.9,4.5 "/>
<polygon class="st0" points="155.6,4.1 155.8,3.2 156.4,3.3 "/>
<polygon class="st0" points="97.4,7.1 98.1,7.9 97.5,7.9 "/>
<polygon class="st0" points="103.5,14 104.2,14.9 103.6,14.9 "/>
<polygon class="st0" points="118.6,4.1 119.3,5 118.7,5 "/>
<polygon class="st0" points="114.1,12.4 114.8,13.3 114.2,13.3 "/>
<polygon class="st0" points="212.9,17.3 213.6,18.2 213,18.2 "/>
<polygon class="st0" points="124.8,12.5 125.5,13.4 124.8,13.4 "/>
<polygon class="st0" points="165.5,6.3 165.7,5.4 166.2,5.5 "/>
<polygon class="st0" points="126,10.8 126.7,11.6 126.1,11.7 "/>
<polygon class="st0" points="184.3,6.4 184.9,7.2 184.2,7.3 "/>
<polygon class="st0" points="189.8,5.4 190.4,6.2 189.8,6.3 "/>
<polygon class="st0" points="146.8,6.9 147.4,7.8 146.8,7.8 "/>
<polygon class="st0" points="137.9,8.5 138.5,9.3 137.9,9.3 "/>
<polygon class="st0" points="142.8,8.4 143.4,9.3 142.8,9.3 "/>
<polygon class="st0" points="154.1,8.7 154.7,9.6 154.1,9.6 "/>
<polygon class="st0" points="128.1,9.1 128.8,9.9 128.1,10 "/>
<polygon class="st0" points="150,7.5 150.6,8.4 150,8.4 "/>
<polygon class="st0" points="119.6,8.5 120.2,9.4 119.6,9.4 "/>
<polygon class="st0" points="166.5,12.3 167.1,13.2 166.5,13.2 "/>
<polygon class="st0" points="117,4.5 117.6,5.4 117,5.4 "/>
<polygon class="st0" points="172,10.3 172.6,11.1 172,11.2 "/>
<polygon class="st0" points="135.5,8.5 136.1,9.4 135.5,9.4 "/>
<polygon class="st0" points="154.2,7.7 154.8,8.6 154.2,8.6 "/>
<polygon class="st0" points="111.5,6.9 112.1,7.8 111.5,7.8 "/>
</svg>
