<?xml version="1.0" encoding="utf-8"?>
<!-- Generator: Adobe Illustrator 21.0.0, SVG Export Plug-In . SVG Version: 6.00 Build 0)  -->
<svg version="1.1" id="Layer_1" xmlns="http://www.w3.org/2000/svg" xmlns:xlink="http://www.w3.org/1999/xlink" x="0px" y="0px"
	 viewBox="0 0 231.8 30.4" style="enable-background:new 0 0 231.8 30.4;" xml:space="preserve">
<style type="text/css">
	.st0{fill:#FFFFFF;}
</style>
<polygon class="st0" points="203.7,14.2 203,12.6 203.8,12.6 "/>
<polygon class="st0" points="194.3,14.2 193.6,12.5 194.5,12.5 "/>
<polygon class="st0" points="161.3,3.5 160.6,1.9 161.5,1.9 "/>
<polygon class="st0" points="163.8,14 163.1,12.4 164,12.4 "/>
<polygon class="st0" points="161.6,15.6 160.9,14 161.7,14 "/>
<polygon class="st0" points="102.7,11.5 104.4,12.6 103.6,12.9 "/>
<polygon class="st0" points="167.2,13.3 166.5,11.6 167.4,11.6 "/>
<polygon class="st0" points="154.3,8 153.6,6.4 154.5,6.4 "/>
<polygon class="st0" points="178.8,15.8 178.1,14.1 178.9,14.2 "/>
<polygon class="st0" points="118.8,10 120.5,11.1 119.8,11.4 "/>
<polygon class="st0" points="183.8,14 183.1,12.3 184,12.3 "/>
<polygon class="st0" points="123.9,7.7 125.6,8.8 124.8,9.2 "/>
<polygon class="st0" points="173.4,7.4 172.8,5.8 173.6,5.8 "/>
<polygon class="st0" points="102,6.5 103.7,7.6 103,7.9 "/>
<polygon class="st0" points="198.2,12 197.6,10.3 198.4,10.4 "/>
<polygon class="st0" points="188.5,11.9 187.8,10.2 188.6,10.2 "/>
<polygon class="st0" points="114.8,6.7 116.5,7.8 115.8,8.1 "/>
<polygon class="st0" points="168.8,13.3 170.5,14.4 169.7,14.7 "/>
<polygon class="st0" points="137.6,2.8 139.3,3.9 138.6,4.2 "/>
<polygon class="st0" points="136.1,7.4 137.8,8.5 137,8.8 "/>
<polygon class="st0" points="183.9,11.3 185.6,12.4 184.8,12.8 "/>
<polygon class="st0" points="145.7,3 147.4,4.1 146.7,4.4 "/>
<polygon class="st0" points="131,10.2 132.7,11.3 132,11.6 "/>
<polygon class="st0" points="144.2,10.9 145.9,12 145.2,12.3 "/>
<polygon class="st0" points="213.7,7.8 215.4,8.9 214.6,9.3 "/>
<polygon class="st0" points="118.8,7.1 120.5,8.2 119.7,8.5 "/>
<polygon class="st0" points="132,2.3 133.7,3.4 132.9,3.8 "/>
<polygon class="st0" points="204.7,14.1 204,12.4 204.9,12.5 "/>
<polygon class="st0" points="138.4,7.6 140.1,8.7 139.3,9 "/>
<polygon class="st0" points="148.8,7.6 150.5,8.7 149.8,9 "/>
<polygon class="st0" points="109.2,4.1 110.9,5.2 110.2,5.5 "/>
<polygon class="st0" points="122.3,10.6 124,11.7 123.2,12.1 "/>
<polygon class="st0" points="46.2,13.9 47.8,15.1 47,15.4 "/>
<polygon class="st0" points="47.8,11.3 49.5,12.5 48.7,12.8 "/>
<polygon class="st0" points="170.1,5.1 171.7,6.3 170.9,6.6 "/>
<polygon class="st0" points="162.1,9.9 163.7,11.1 163,11.4 "/>
<polygon class="st0" points="174.1,7.1 175.8,8.2 175,8.5 "/>
<polygon class="st0" points="186.7,5 188.3,6.2 187.5,6.5 "/>
<polygon class="st0" points="158.8,11.9 160.4,13.1 159.6,13.4 "/>
<polygon class="st0" points="180.1,14 181.7,15.2 180.9,15.5 "/>
<polygon class="st0" points="155.3,10.3 156.9,11.5 156.2,11.8 "/>
<polygon class="st0" points="194.3,4.3 195.9,5.4 195.2,5.7 "/>
<polygon class="st0" points="151.6,7.9 153.2,9.1 152.4,9.4 "/>
<polygon class="st0" points="169.5,7.2 171.1,8.4 170.3,8.7 "/>
<polygon class="st0" points="164.4,9.3 166,10.5 165.2,10.8 "/>
<polygon class="st0" points="189.8,10.3 191.4,11.5 190.6,11.7 "/>
<polygon class="st0" points="185,12.6 186.6,13.7 185.8,14 "/>
<polygon class="st0" points="147,11.8 148.6,12.9 147.8,13.2 "/>
<polygon class="st0" points="107.3,7.9 107.6,6.2 108.3,6.5 "/>
<polygon class="st0" points="101.2,13.7 101.4,12 102.2,12.3 "/>
<polygon class="st0" points="62.1,17 62.4,15.2 63.1,15.5 "/>
<polygon class="st0" points="70.2,15.1 70.4,13.4 71.2,13.7 "/>
<polygon class="st0" points="71.7,8.3 71.9,6.6 72.7,6.9 "/>
<polygon class="st0" points="137,6.4 138,8 137.1,8 "/>
<polygon class="st0" points="76.6,15.2 76.8,13.5 77.6,13.8 "/>
<polygon class="st0" points="63.6,6.4 63.8,4.7 64.6,5 "/>
<polygon class="st0" points="77.5,13.5 77.8,11.8 78.5,12.1 "/>
<polygon class="st0" points="153.2,7.3 154.2,8.9 153.3,9 "/>
<polygon class="st0" points="86,11.6 86.2,9.8 87,10.1 "/>
<polygon class="st0" points="199.7,3.8 200.7,5.4 199.9,5.5 "/>
<polygon class="st0" points="81.5,10.5 81.8,8.7 82.5,9.1 "/>
<polygon class="st0" points="172.1,6 173.1,7.6 172.3,7.6 "/>
<polygon class="st0" points="98,13.5 98.2,11.7 99,12 "/>
<polygon class="st0" points="90.7,11.2 90.9,9.4 91.7,9.8 "/>
<polygon class="st0" points="181.6,11.8 182.6,13.4 181.8,13.4 "/>
<polygon class="st0" points="196.6,12.3 197.5,13.9 196.7,14 "/>
<polygon class="st0" points="50.4,4 51.3,5.5 50.5,5.6 "/>
<polygon class="st0" points="177.9,7.3 178.9,8.9 178,8.9 "/>
<polygon class="st0" points="52.3,12.2 53.3,13.8 52.4,13.8 "/>
<polygon class="st0" points="58.5,5.3 59.5,6.9 58.6,6.9 "/>
<polygon class="st0" points="207.8,3.5 208.8,5 207.9,5.1 "/>
<polygon class="st0" points="55.2,11.2 56.2,12.8 55.3,12.9 "/>
<polygon class="st0" points="135.9,3 136.9,4.6 136.1,4.6 "/>
<polygon class="st0" points="66.6,6.2 67.6,7.8 66.7,7.9 "/>
<polygon class="st0" points="206.2,4.7 207.1,6.2 206.3,6.3 "/>
<polygon class="st0" points="99.8,6.6 100,4.8 100.8,5.1 "/>
<polygon class="st0" points="212.7,10.8 213.7,12.3 212.8,12.4 "/>
<polygon class="st0" points="60.3,10.6 61.3,12.1 60.4,12.2 "/>
<polygon class="st0" points="176.8,5 177.8,6.6 176.9,6.6 "/>
<polygon class="st0" points="191.3,5.2 192.3,6.8 191.4,6.9 "/>
<polygon class="st0" points="129.6,2.2 130.4,3.8 129.6,3.9 "/>
<polygon class="st0" points="134.2,2 135.1,3.6 134.2,3.6 "/>
<polygon class="st0" points="84.1,3.3 84.9,4.9 84,4.9 "/>
<polygon class="st0" points="75.1,3.8 76,5.4 75.1,5.4 "/>
<polygon class="st0" points="80,10.9 80.8,12.5 80,12.6 "/>
<polygon class="st0" points="93.4,3.7 94.3,5.3 93.4,5.4 "/>
<polygon class="st0" points="68.3,4.3 69.2,5.9 68.3,5.9 "/>
<polygon class="st0" points="88.9,9.2 89.7,10.8 88.9,10.8 "/>
<polygon class="st0" points="64.9,4 65.8,5.6 64.9,5.6 "/>
<polygon class="st0" points="110.9,5.3 111.8,6.9 110.9,7 "/>
<polygon class="st0" points="56.9,5.5 57.7,7.1 56.9,7.1 "/>
<polygon class="st0" points="118.1,4.6 119,6.2 118.1,6.2 "/>
<polygon class="st0" points="73.6,10.4 74.5,12 73.6,12 "/>
<polygon class="st0" points="96.1,9.3 97,10.9 96.1,11 "/>
<polygon class="st0" points="210.8,10.8 211.7,12.4 210.8,12.5 "/>
<polygon class="st0" points="53.5,6.9 54.4,8.5 53.5,8.6 "/>
<polygon class="st0" points="100.3,10.7 99.6,9 100.5,9 "/>
<polygon class="st0" points="84.6,10.8 83.9,9.1 84.8,9.2 "/>
<polygon class="st0" points="210.6,14.5 209.9,12.8 210.8,12.9 "/>
<polygon class="st0" points="217.3,12.8 216.7,11.2 217.5,11.2 "/>
<polygon class="st0" points="51.4,12.3 50.7,10.6 51.6,10.7 "/>
<polygon class="st0" points="185.7,14.3 187.4,15.4 186.6,15.7 "/>
<polygon class="st0" points="220.3,12 219.6,10.3 220.5,10.3 "/>
<polygon class="st0" points="45.5,13.7 44.8,12.1 45.7,12.1 "/>
<polygon class="st0" points="63.6,11.1 62.9,9.4 63.8,9.5 "/>
<polygon class="st0" points="31.4,11.5 33.1,12.6 32.3,12.9 "/>
<polygon class="st0" points="68.3,9.8 67.6,8.1 68.5,8.2 "/>
<polygon class="st0" points="30,13.2 31.7,14.3 30.9,14.6 "/>
<polygon class="st0" points="64.6,12.8 63.9,11.2 64.8,11.2 "/>
<polygon class="st0" points="186.1,13.4 187.8,14.5 187,14.9 "/>
<polygon class="st0" points="87.4,8.1 86.7,6.4 87.6,6.5 "/>
<polygon class="st0" points="73.3,7.7 72.6,6.1 73.5,6.1 "/>
<polygon class="st0" points="190.8,13.9 192.5,15 191.7,15.3 "/>
<polygon class="st0" points="193.3,13.1 195,14.2 194.3,14.5 "/>
<polygon class="st0" points="37.3,7.4 39,8.5 38.3,8.8 "/>
<polygon class="st0" points="36.6,12.8 38.3,14 37.5,14.3 "/>
<polygon class="st0" points="38,9.8 39.7,11 38.9,11.3 "/>
<polygon class="st0" points="41.2,7.6 42.9,8.7 42.1,9.1 "/>
<polygon class="st0" points="37.6,11.7 39.3,12.8 38.5,13.1 "/>
<polygon class="st0" points="203.3,9.8 205,10.9 204.2,11.2 "/>
<polygon class="st0" points="159.8,11.3 161.5,12.4 160.7,12.7 "/>
<polygon class="st0" points="43.7,6.6 45.4,7.7 44.6,8.1 "/>
<polygon class="st0" points="31.6,12 33.3,13.1 32.6,13.5 "/>
<polygon class="st0" points="97.2,9.7 96.5,8 97.4,8 "/>
<polygon class="st0" points="37.2,13.3 38.9,14.4 38.1,14.7 "/>
<polygon class="st0" points="43,13.3 44.7,14.4 43.9,14.8 "/>
<polygon class="st0" points="188.6,11.9 190.3,13 189.5,13.3 "/>
<polygon class="st0" points="33.1,12.3 34.8,13.4 34,13.8 "/>
<polygon class="st0" points="15.5,17.3 17.2,18.5 16.4,18.8 "/>
<polygon class="st0" points="4.7,16.3 6.3,17.4 5.5,17.7 "/>
<polygon class="st0" points="60.8,10.6 62.5,11.7 61.7,12 "/>
<polygon class="st0" points="52.9,15.7 54.5,16.9 53.7,17.2 "/>
<polygon class="st0" points="65.3,12.9 66.9,14.1 66.2,14.4 "/>
<polygon class="st0" points="77.4,10.7 79.1,11.9 78.3,12.2 "/>
<polygon class="st0" points="48.6,8.7 50.2,9.9 49.5,10.2 "/>
<polygon class="st0" points="70,10.7 71.6,11.9 70.8,12.2 "/>
<polygon class="st0" points="46.5,16.1 48.1,17.3 47.3,17.6 "/>
<polygon class="st0" points="88.1,9.6 89.7,10.7 88.9,11 "/>
<polygon class="st0" points="44.1,13.6 45.7,14.8 44.9,15.1 "/>
<polygon class="st0" points="97.4,7 99,8.2 98.2,8.5 "/>
<polygon class="st0" points="55.6,15 57.2,16.2 56.4,16.5 "/>
<polygon class="st0" points="74.7,6.5 76.3,7.6 75.5,7.9 "/>
<polygon class="st0" points="201.4,12.7 203.1,13.8 202.3,14.1 "/>
<polygon class="st0" points="203.9,10.3 205.6,11.5 204.8,11.8 "/>
<polygon class="st0" points="25.6,13.6 25.9,11.8 26.6,12.1 "/>
<polygon class="st0" points="178.8,5.3 179,3.5 179.8,3.8 "/>
<polygon class="st0" points="10,12.8 10.2,11 11,11.3 "/>
<polygon class="st0" points="25.9,18.9 26.1,17.2 26.9,17.5 "/>
<polygon class="st0" points="15.3,12.7 15.6,11 16.3,11.3 "/>
<polygon class="st0" points="59.4,5.9 60.3,7.5 59.5,7.6 "/>
<polygon class="st0" points="29.3,19 29.5,17.2 30.3,17.6 "/>
<polygon class="st0" points="8,14.4 8.2,12.7 9,13 "/>
<polygon class="st0" points="29.5,17.7 29.7,16 30.4,16.3 "/>
<polygon class="st0" points="76,7.3 77,8.8 76.1,8.9 "/>
<polygon class="st0" points="21.6,17 21.8,15.3 22.6,15.6 "/>
<polygon class="st0" points="95.6,8.9 96.6,10.4 95.7,10.5 "/>
<polygon class="st0" points="20.5,15.6 20.7,13.9 21.5,14.2 "/>
<polygon class="st0" points="62.9,11.8 63.9,13.4 63,13.5 "/>
<polygon class="st0" points="36.7,17.9 36.9,16.1 37.7,16.4 "/>
<polygon class="st0" points="22.8,16.5 23.1,14.7 23.8,15 "/>
<polygon class="st0" points="71.9,8.4 72.9,9.9 72,10 "/>
<polygon class="st0" points="89.8,8.8 90.8,10.3 89.9,10.4 "/>
<polygon class="st0" points="2.4,10.8 3.4,12.4 2.5,12.4 "/>
<polygon class="st0" points="110,7 111,8.5 110.1,8.6 "/>
<polygon class="st0" points="6.6,17.2 7.5,18.8 6.7,18.9 "/>
<polygon class="st0" points="5.4,13.2 6.4,14.8 5.6,14.8 "/>
<polygon class="st0" points="107.5,8.3 108.5,9.9 107.6,9.9 "/>
<polygon class="st0" points="7.4,16.3 8.4,17.8 7.5,17.9 "/>
<polygon class="st0" points="197.1,13.8 198.1,15.3 197.2,15.4 "/>
<polygon class="st0" points="12.8,10.4 13.7,12 12.9,12.1 "/>
<polygon class="st0" points="105.4,10.1 106.4,11.6 105.5,11.7 "/>
<polygon class="st0" points="185.6,14 185.8,12.2 186.6,12.5 "/>
<polygon class="st0" points="114.5,7 115.4,8.6 114.6,8.7 "/>
<polygon class="st0" points="9.9,15.6 10.9,17.2 10,17.2 "/>
<polygon class="st0" points="67.6,10.4 68.5,12 67.7,12.1 "/>
<polygon class="st0" points="82.5,11 83.4,12.5 82.6,12.6 "/>
<polygon class="st0" points="33.5,6 34.3,7.6 33.5,7.6 "/>
<polygon class="st0" points="35.6,5.6 36.5,7.2 35.6,7.2 "/>
<polygon class="st0" points="17.8,10.7 18.7,12.3 17.8,12.4 "/>
<polygon class="st0" points="13.6,11.5 14.4,13.1 13.6,13.1 "/>
<polygon class="st0" points="19.8,16.2 20.7,17.8 19.8,17.8 "/>
<polygon class="st0" points="20.8,12.1 21.7,13.7 20.8,13.7 "/>
<polygon class="st0" points="10.2,12.2 11,13.8 10.2,13.8 "/>
<polygon class="st0" points="22.7,14.7 23.6,16.3 22.7,16.4 "/>
<polygon class="st0" points="8.5,11.4 9.3,13 8.5,13 "/>
<polygon class="st0" points="25.5,9.5 26.3,11.1 25.5,11.1 "/>
<polygon class="st0" points="4.7,13.4 5.5,15 4.7,15.1 "/>
<polygon class="st0" points="27.6,8.9 28.4,10.5 27.6,10.5 "/>
<polygon class="st0" points="16.4,15.8 17.3,17.4 16.4,17.4 "/>
<polygon class="st0" points="25.3,14.9 26.2,16.6 25.3,16.6 "/>
<polygon class="st0" points="106.3,6.6 107.2,8.3 106.3,8.3 "/>
<polygon class="st0" points="6.9,11.1 7.8,12.7 6.9,12.7 "/>
<polygon class="st0" points="226.8,13.4 226.1,11.8 227,11.8 "/>
<polygon class="st0" points="222.1,13.3 221.4,11.6 222.3,11.7 "/>
<polygon class="st0" points="185.8,9.3 185.1,7.7 186,7.7 "/>
<polygon class="st0" points="199.3,19.3 198.6,17.6 199.5,17.6 "/>
<polygon class="st0" points="195.8,14.4 195.1,12.8 195.9,12.8 "/>
<polygon class="st0" points="146.7,5.2 148.4,6.3 147.6,6.6 "/>
<polygon class="st0" points="202.7,19 202,17.3 202.9,17.3 "/>
<polygon class="st0" points="182.3,5.3 181.6,3.6 182.5,3.7 "/>
<polygon class="st0" points="213.8,19.5 213.1,17.8 213.9,17.9 "/>
<polygon class="st0" points="158.2,4.2 159.9,5.3 159.1,5.6 "/>
<polygon class="st0" points="217.1,19 216.5,17.3 217.3,17.4 "/>
<polygon class="st0" points="162.8,2.7 164.5,3.8 163.7,4.1 "/>
<polygon class="st0" points="209,15.4 208.3,13.7 209.2,13.8 "/>
<polygon class="st0" points="150.1,6.5 151.8,7.6 151.1,8 "/>
<polygon class="st0" points="224.4,18.2 223.7,16.5 224.5,16.6 "/>
<polygon class="st0" points="219.7,18.2 219,16.5 219.9,16.5 "/>
<polygon class="st0" points="159.5,6.3 161.2,7.5 160.4,7.8 "/>
<polygon class="st0" points="164.6,6.1 166.3,7.2 165.5,7.5 "/>
<polygon class="st0" points="172.7,9 174.4,10.1 173.6,10.4 "/>
<polygon class="st0" points="170.2,6.4 171.9,7.5 171.2,7.8 "/>
<polygon class="st0" points="175.5,12.2 177.2,13.3 176.4,13.7 "/>
<polygon class="st0" points="180.8,9.3 182.5,10.4 181.7,10.8 "/>
<polygon class="st0" points="165.6,8.9 167.3,10 166.6,10.4 "/>
<polygon class="st0" points="178.4,9.9 180.1,11 179.4,11.3 "/>
<polygon class="st0" points="228.5,20.3 230.2,21.4 229.5,21.8 "/>
<polygon class="st0" points="185.4,7.8 187.1,8.9 186.4,9.2 "/>
<polygon class="st0" points="166.2,1.4 167.9,2.5 167.1,2.8 "/>
<polygon class="st0" points="227.8,18.9 227.1,17.3 228,17.3 "/>
<polygon class="st0" points="166.8,4.9 168.5,6 167.7,6.4 "/>
<polygon class="st0" points="183.4,6.4 185.1,7.5 184.4,7.8 "/>
<polygon class="st0" points="154.8,5.9 156.5,7 155.7,7.3 "/>
<polygon class="st0" points="161.1,4.5 162.8,5.6 162.1,5.9 "/>
<polygon class="st0" points="76.7,10.5 78.3,11.6 77.5,11.9 "/>
<polygon class="st0" points="79.2,8.9 80.8,10.1 80,10.4 "/>
<polygon class="st0" points="205.2,12.8 206.8,14 206,14.3 "/>
<polygon class="st0" points="196.3,8.6 197.9,9.8 197.1,10.1 "/>
<polygon class="st0" points="209.7,15 211.3,16.2 210.5,16.5 "/>
<polygon class="st0" points="218.4,13 220,14.2 219.2,14.5 "/>
<polygon class="st0" points="193.4,10.9 195,12 194.2,12.3 "/>
<polygon class="st0" points="214.7,12.8 216.3,14 215.5,14.3 "/>
<polygon class="st0" points="189.9,9 191.5,10.2 190.8,10.5 "/>
<polygon class="st0" points="222.6,12 224.2,13.1 223.4,13.4 "/>
<polygon class="st0" points="179.6,5 181.2,6.2 180.4,6.5 "/>
<polygon class="st0" points="225.9,9.3 227.6,10.4 226.8,10.7 "/>
<polygon class="st0" points="199.9,16.4 201.5,17.6 200.7,17.9 "/>
<polygon class="st0" points="219.3,9.3 220.9,10.5 220.1,10.8 "/>
<polygon class="st0" points="202.2,17.4 203.9,18.5 203.1,18.8 "/>
<polygon class="st0" points="207.3,16.5 208.9,17.7 208.2,18 "/>
<polygon class="st0" points="192.5,14.3 192.8,12.6 193.5,12.9 "/>
<polygon class="st0" points="141.3,12.2 141.6,10.4 142.3,10.7 "/>
<polygon class="st0" points="97.7,5.6 97.9,3.9 98.7,4.2 "/>
<polygon class="st0" points="115.8,13.5 116.1,11.8 116.8,12.1 "/>
<polygon class="st0" points="113.2,5.4 113.5,3.6 114.2,4 "/>
<polygon class="st0" points="203.7,6.8 204.6,8.3 203.8,8.4 "/>
<polygon class="st0" points="123.5,13.7 123.7,12 124.5,12.3 "/>
<polygon class="st0" points="106.7,12.1 106.9,10.4 107.7,10.7 "/>
<polygon class="st0" points="128.8,7.1 129,5.3 129.8,5.6 "/>
<polygon class="st0" points="217.8,9.1 218.7,10.6 217.9,10.7 "/>
<polygon class="st0" points="135.5,5.6 135.8,3.9 136.5,4.2 "/>
<polygon class="st0" points="225,11.4 226,13 225.2,13 "/>
<polygon class="st0" points="128.1,8.8 128.3,7.1 129.1,7.4 "/>
<polygon class="st0" points="206.3,4.8 207.3,6.4 206.4,6.5 "/>
<polygon class="st0" points="143.6,6.8 143.9,5 144.6,5.4 "/>
<polygon class="st0" points="138.5,5.2 138.7,3.5 139.5,3.8 "/>
<polygon class="st0" points="215.4,10.6 216.4,12.1 215.5,12.2 "/>
<polygon class="st0" points="222.7,11.3 223.6,12.9 222.8,12.9 "/>
<polygon class="st0" points="87.1,8 88,9.6 87.2,9.6 "/>
<polygon class="st0" points="228.2,14.3 229.1,15.9 228.3,16 "/>
<polygon class="st0" points="89,10.9 90,12.5 89.1,12.6 "/>
<polygon class="st0" points="99.5,11.5 100.5,13.1 99.6,13.1 "/>
<polygon class="st0" points="227.8,15.7 228.8,17.3 227.9,17.4 "/>
<polygon class="st0" points="93.7,9.9 94.6,11.4 93.8,11.5 "/>
<polygon class="st0" points="171.3,6 172.3,7.6 171.5,7.6 "/>
<polygon class="st0" points="154.9,11 155.9,12.5 155,12.6 "/>
<polygon class="st0" points="227.4,17.5 228.4,19.1 227.5,19.1 "/>
<polygon class="st0" points="148.4,7.7 148.6,5.9 149.4,6.3 "/>
<polygon class="st0" points="228.3,14.6 229.3,16.2 228.5,16.3 "/>
<polygon class="st0" points="101.3,9.2 102.3,10.8 101.4,10.8 "/>
<polygon class="st0" points="211.9,12.6 212.9,14.2 212,14.2 "/>
<polygon class="st0" points="221.3,13.2 222.2,14.8 221.4,14.8 "/>
<polygon class="st0" points="164.6,7 165.4,8.6 164.6,8.6 "/>
<polygon class="st0" points="169.7,6.3 170.5,7.9 169.7,7.9 "/>
<polygon class="st0" points="130.5,7.5 131.4,9.1 130.5,9.1 "/>
<polygon class="st0" points="122.5,8.5 123.3,10.1 122.5,10.1 "/>
<polygon class="st0" points="126.5,9.3 127.4,10.9 126.5,10.9 "/>
<polygon class="st0" points="137,9.4 137.8,11 137,11 "/>
<polygon class="st0" points="114.4,9.5 115.3,11.1 114.4,11.2 "/>
<polygon class="st0" points="133.3,7.8 134.1,9.4 133.3,9.4 "/>
<polygon class="st0" points="109.3,8.6 110.2,10.2 109.3,10.3 "/>
<polygon class="st0" points="191.5,10.3 192.4,11.9 191.5,11.9 "/>
<polygon class="st0" points="97,11.7 97.9,13.3 97,13.4 "/>
<polygon class="st0" points="153.2,11.3 154.1,12.9 153.2,12.9 "/>
<polygon class="st0" points="120.1,9 121,10.6 120.1,10.6 "/>
<polygon class="st0" points="138,7.9 138.8,9.6 138,9.6 "/>
<polygon class="st0" points="228.2,21.4 229,23.1 228.2,23.1 "/>
<polygon class="st0" points="86.5,4.1 87.4,5.7 86.5,5.7 "/>
<polygon class="st0" points="226.6,13.2 226.1,12.3 226.7,12.4 "/>
<polygon class="st0" points="215.9,13 215.4,12.1 216.1,12.1 "/>
<polygon class="st0" points="176.2,15.9 175.7,15 176.3,15 "/>
<polygon class="st0" points="183.3,12.3 182.8,11.4 183.4,11.4 "/>
<polygon class="st0" points="180.6,14.5 180.2,13.6 180.8,13.7 "/>
<polygon class="st0" points="109,13.9 110.2,14.5 109.6,14.7 "/>
<polygon class="st0" points="186.7,11.9 186.2,11 186.8,11 "/>
<polygon class="st0" points="172.5,6.9 172,6 172.7,6 "/>
<polygon class="st0" points="199.5,15.2 199.1,14.3 199.7,14.3 "/>
<polygon class="st0" points="134.8,9.1 136,9.7 135.5,9.9 "/>
<polygon class="st0" points="205,12.5 204.5,11.6 205.1,11.6 "/>
<polygon class="st0" points="139.9,7.4 141.1,7.9 140.5,8.1 "/>
<polygon class="st0" points="192.9,6.2 192.5,5.3 193.1,5.3 "/>
<polygon class="st0" points="109.1,5.3 110.3,5.9 109.7,6.1 "/>
<polygon class="st0" points="220.7,10.4 220.2,9.5 220.8,9.5 "/>
<polygon class="st0" points="210.1,10.2 209.6,9.3 210.2,9.3 "/>
<polygon class="st0" points="140.5,3.1 141.7,3.7 141.2,3.9 "/>
<polygon class="st0" points="184.8,13.1 186,13.7 185.4,13.9 "/>
<polygon class="st0" points="124.1,5.5 125.3,6.1 124.8,6.3 "/>
<polygon class="st0" points="153.3,6.5 154.5,7 154,7.2 "/>
<polygon class="st0" points="158.6,13.3 159.8,13.9 159.2,14.1 "/>
<polygon class="st0" points="132.2,5.4 133.4,6 132.8,6.2 "/>
<polygon class="st0" points="148.7,9.1 149.9,9.7 149.3,9.9 "/>
<polygon class="st0" points="162.7,9.6 163.9,10.2 163.4,10.4 "/>
<polygon class="st0" points="137.3,5 138.5,5.6 137.9,5.8 "/>
<polygon class="st0" points="143.2,6.3 144.5,6.8 143.9,7 "/>
<polygon class="st0" points="156,7.3 157.2,7.9 156.7,8.1 "/>
<polygon class="st0" points="168.2,7.1 169.4,7.7 168.9,7.9 "/>
<polygon class="st0" points="173.2,11.4 174.4,12 173.9,12.2 "/>
<polygon class="st0" points="138.2,9.9 139.4,10.5 138.9,10.7 "/>
<polygon class="st0" points="55.4,14.4 56.5,15.1 56,15.2 "/>
<polygon class="st0" points="57.4,11.2 58.6,11.9 58,12 "/>
<polygon class="st0" points="158.7,8.4 159.8,9 159.3,9.2 "/>
<polygon class="st0" points="181.9,8.6 183,9.2 182.5,9.4 "/>
<polygon class="st0" points="195.2,6.6 196.4,7.2 195.8,7.4 "/>
<polygon class="st0" points="208.2,3.7 209.3,4.4 208.7,4.5 "/>
<polygon class="st0" points="178.1,11.4 179.3,12.1 178.7,12.2 "/>
<polygon class="st0" points="201.2,13.7 202.3,14.3 201.8,14.5 "/>
<polygon class="st0" points="174.3,9.2 175.4,9.8 174.8,10 "/>
<polygon class="st0" points="217.3,10.7 218.4,11.4 217.9,11.5 "/>
<polygon class="st0" points="170.1,7.4 171.3,8.1 170.7,8.2 "/>
<polygon class="st0" points="224.5,10.3 225.6,11 225.1,11.1 "/>
<polygon class="st0" points="184.6,8.4 185.8,9 185.2,9.2 "/>
<polygon class="st0" points="212.1,9.1 213.3,9.8 212.7,9.9 "/>
<polygon class="st0" points="159.7,14.2 160.8,14.8 160.2,15 "/>
<polygon class="st0" points="165.1,11.1 166.2,11.7 165.7,11.9 "/>
<polygon class="st0" points="169.5,14.8 169.7,13.9 170.3,14.1 "/>
<polygon class="st0" points="123.7,6 123.9,5 124.4,5.2 "/>
<polygon class="st0" points="74.9,10.5 75.1,9.5 75.6,9.7 "/>
<polygon class="st0" points="83.8,8.2 83.9,7.3 84.5,7.4 "/>
<polygon class="st0" points="78.6,7.4 78.8,6.4 79.4,6.6 "/>
<polygon class="st0" points="157.1,4.3 157.8,5.2 157.2,5.2 "/>
<polygon class="st0" points="88,9.1 88.2,8.1 88.8,8.3 "/>
<polygon class="st0" points="69.6,4.2 69.8,3.2 70.3,3.4 "/>
<polygon class="st0" points="88.8,14.8 89,13.9 89.5,14 "/>
<polygon class="st0" points="175,4.6 175.7,5.4 175.1,5.5 "/>
<polygon class="st0" points="102.6,13.1 102.8,12.1 103.3,12.3 "/>
<polygon class="st0" points="222.6,10.5 223.3,11.3 222.7,11.3 "/>
<polygon class="st0" points="90.2,9.4 90.4,8.4 90.9,8.6 "/>
<polygon class="st0" points="192.2,4.8 192.9,5.6 192.3,5.7 "/>
<polygon class="st0" points="101.1,15.2 101.3,14.2 101.9,14.4 "/>
<polygon class="st0" points="108.6,12.5 108.7,11.5 109.3,11.7 "/>
<polygon class="st0" points="202.2,11.9 202.9,12.8 202.3,12.8 "/>
<polygon class="st0" points="219.2,12 219.9,12.8 219.3,12.9 "/>
<polygon class="st0" points="59.8,3 60.5,3.8 59.9,3.8 "/>
<polygon class="st0" points="61.8,12.1 62.5,13 61.8,13 "/>
<polygon class="st0" points="64.1,3.9 64.8,4.8 64.2,4.8 "/>
<polygon class="st0" points="68,5.2 68.7,6 68.1,6.1 "/>
<polygon class="st0" points="153.1,2.8 153.8,3.7 153.2,3.7 "/>
<polygon class="st0" points="73.1,5.4 73.8,6.3 73.2,6.3 "/>
<polygon class="st0" points="105.9,5.5 106.1,4.5 106.6,4.7 "/>
<polygon class="st0" points="72.2,3.8 72.9,4.7 72.3,4.7 "/>
<polygon class="st0" points="197.8,3.7 198.4,4.6 197.8,4.6 "/>
<polygon class="st0" points="214.1,10.9 214.8,11.8 214.2,11.8 "/>
<polygon class="st0" points="145.8,0.5 146.4,1.4 145.8,1.4 "/>
<polygon class="st0" points="119.7,5.1 120.3,6 119.7,6 "/>
<polygon class="st0" points="92.6,1.8 93.2,2.7 92.6,2.7 "/>
<polygon class="st0" points="81.2,2.7 81.8,3.6 81.2,3.6 "/>
<polygon class="st0" points="95.2,2.9 95.8,3.7 95.2,3.8 "/>
<polygon class="st0" points="105,1.8 105.6,2.6 105,2.7 "/>
<polygon class="st0" points="75.6,3 76.2,3.9 75.6,3.9 "/>
<polygon class="st0" points="99.2,9.2 99.8,10.1 99.2,10.1 "/>
<polygon class="st0" points="71.4,2.8 72,3.6 71.4,3.7 "/>
<polygon class="st0" points="122.9,3.4 123.5,4.3 122.9,4.3 "/>
<polygon class="st0" points="63.3,4.5 63.9,5.4 63.3,5.4 "/>
<polygon class="st0" points="133.5,2 134.1,2.8 133.5,2.9 "/>
<polygon class="st0" points="86.3,4.2 86.9,5.1 86.3,5.1 "/>
<polygon class="st0" points="114.8,1.9 115.4,2.8 114.8,2.8 "/>
<polygon class="st0" points="62.5,6.5 63.1,7.4 62.5,7.4 "/>
<polygon class="st0" points="122.7,11.7 122.2,10.8 122.8,10.8 "/>
<polygon class="st0" points="101.4,11.7 100.9,10.8 101.5,10.8 "/>
<polygon class="st0" points="219.9,14.3 219.4,13.4 220,13.4 "/>
<polygon class="st0" points="67.1,11.9 66.6,11 67.2,11 "/>
<polygon class="st0" points="60.7,11.6 60.2,10.7 60.8,10.8 "/>
<polygon class="st0" points="191.4,10.7 192.6,11.3 192,11.5 "/>
<polygon class="st0" points="70.5,11.3 70,10.4 70.6,10.5 "/>
<polygon class="st0" points="54.4,13.4 53.9,12.5 54.5,12.5 "/>
<polygon class="st0" points="82,13 81.5,12.1 82.2,12.2 "/>
<polygon class="st0" points="35.4,16.2 36.6,16.8 36.1,17 "/>
<polygon class="st0" points="87.5,11.8 87,10.9 87.7,10.9 "/>
<polygon class="st0" points="37.9,13.6 39.1,14.1 38.5,14.3 "/>
<polygon class="st0" points="72.2,6.5 71.7,5.6 72.4,5.6 "/>
<polygon class="st0" points="193.2,13.9 194.4,14.5 193.8,14.6 "/>
<polygon class="st0" points="90.7,6.2 90.2,5.3 90.8,5.3 "/>
<polygon class="st0" points="85.1,6.3 84.7,5.4 85.3,5.4 "/>
<polygon class="st0" points="198.3,14.4 199.5,15 198.9,15.2 "/>
<polygon class="st0" points="201.2,13.4 202.4,14 201.9,14.2 "/>
<polygon class="st0" points="45.6,6.9 46.8,7.4 46.3,7.6 "/>
<polygon class="st0" points="44.5,13.1 45.7,13.7 45.2,13.9 "/>
<polygon class="st0" points="46.7,10.7 48,11.3 47.4,11.5 "/>
<polygon class="st0" points="49.9,7.7 51.1,8.2 50.6,8.4 "/>
<polygon class="st0" points="42.1,16.9 43.3,17.5 42.7,17.7 "/>
<polygon class="st0" points="211.6,10.6 212.8,11.2 212.3,11.4 "/>
<polygon class="st0" points="132.3,12.6 133.5,13.2 133,13.4 "/>
<polygon class="st0" points="52.4,5.8 53.6,6.4 53.1,6.5 "/>
<polygon class="st0" points="39.6,12.7 40.8,13.3 40.2,13.5 "/>
<polygon class="st0" points="100.1,6.8 99.6,5.9 100.2,5.9 "/>
<polygon class="st0" points="45.5,13.6 46.7,14.2 46.2,14.4 "/>
<polygon class="st0" points="51.8,13.8 53,14.4 52.4,14.5 "/>
<polygon class="st0" points="195.7,12.8 196.9,13.4 196.3,13.6 "/>
<polygon class="st0" points="36.7,16.9 37.9,17.5 37.4,17.7 "/>
<polygon class="st0" points="18.3,17.3 19.5,18 18.9,18.1 "/>
<polygon class="st0" points="7.9,15.6 9,16.2 8.5,16.4 "/>
<polygon class="st0" points="74.1,3.6 75.2,4.2 74.7,4.4 "/>
<polygon class="st0" points="65.3,10.3 66.5,10.9 65.9,11.1 "/>
<polygon class="st0" points="73.6,6.9 74.8,7.5 74.2,7.7 "/>
<polygon class="st0" points="94.5,2.7 95.6,3.4 95.1,3.5 "/>
<polygon class="st0" points="58.2,9.3 59.4,10 58.8,10.1 "/>
<polygon class="st0" points="85,14.8 86.2,15.4 85.6,15.6 "/>
<polygon class="st0" points="218,9.9 219.2,10.6 218.6,10.7 "/>
<polygon class="st0" points="104.3,2.1 105.4,2.7 104.9,2.9 "/>
<polygon class="st0" points="53.2,14.2 54.4,14.8 53.8,15 "/>
<polygon class="st0" points="113.3,5.7 114.4,6.4 113.9,6.5 "/>
<polygon class="st0" points="68,9.4 69.2,10 68.6,10.2 "/>
<polygon class="st0" points="98.1,9.6 99.2,10.2 98.7,10.4 "/>
<polygon class="st0" points="210.2,12.8 211.3,13.5 210.8,13.6 "/>
<polygon class="st0" points="212.7,11.4 213.8,12 213.3,12.2 "/>
<polygon class="st0" points="32.6,13.1 32.7,12.2 33.3,12.3 "/>
<polygon class="st0" points="191,11.6 191.2,10.6 191.7,10.8 "/>
<polygon class="st0" points="15.2,11.5 15.4,10.6 15.9,10.8 "/>
<polygon class="st0" points="20.3,18.9 20.5,18 21,18.2 "/>
<polygon class="st0" points="21,11.7 21.2,10.7 21.7,10.9 "/>
<polygon class="st0" points="65.8,5 66.5,5.8 65.9,5.8 "/>
<polygon class="st0" points="35.4,17.7 35.6,16.8 36.1,17 "/>
<polygon class="st0" points="13.2,11.9 13.4,11 13.9,11.1 "/>
<polygon class="st0" points="24.3,17.4 24.5,16.4 25,16.6 "/>
<polygon class="st0" points="82.9,7.2 83.6,8 83,8.1 "/>
<polygon class="st0" points="186.5,12.1 186.7,11.2 187.2,11.3 "/>
<polygon class="st0" points="108.1,8.6 108.8,9.5 108.1,9.5 "/>
<polygon class="st0" points="26.6,13.4 26.7,12.5 27.3,12.6 "/>
<polygon class="st0" points="76.9,5.6 77.6,6.5 77,6.5 "/>
<polygon class="st0" points="189.9,12 190.1,11.1 190.6,11.2 "/>
<polygon class="st0" points="188.2,13 188.4,12.1 188.9,12.3 "/>
<polygon class="st0" points="85.6,11.1 86.3,11.9 85.7,12 "/>
<polygon class="st0" points="107.3,10.2 108,11 107.3,11.1 "/>
<polygon class="st0" points="5.9,8.7 6.6,9.6 6,9.6 "/>
<polygon class="st0" points="121.2,6 121.9,6.8 121.3,6.9 "/>
<polygon class="st0" points="10.5,17.4 11.2,18.2 10.6,18.2 "/>
<polygon class="st0" points="10.7,12 11.3,12.8 10.7,12.9 "/>
<polygon class="st0" points="117.4,7.9 118.1,8.7 117.5,8.8 "/>
<polygon class="st0" points="12.6,15.7 13.3,16.5 12.7,16.6 "/>
<polygon class="st0" points="204.9,14.4 205.6,15.2 205,15.3 "/>
<polygon class="st0" points="14.9,13.4 15.6,14.2 15,14.3 "/>
<polygon class="st0" points="127.5,1.9 128.2,2.8 127.6,2.8 "/>
<polygon class="st0" points="192.1,13.8 192.3,12.8 192.8,13 "/>
<polygon class="st0" points="129.5,6.8 130.2,7.6 129.6,7.6 "/>
<polygon class="st0" points="15.1,14.6 15.8,15.4 15.2,15.4 "/>
<polygon class="st0" points="80.3,4.2 81,5.1 80.4,5.1 "/>
<polygon class="st0" points="99.8,3 100.5,3.8 99.9,3.9 "/>
<polygon class="st0" points="40.8,5 41.4,5.9 40.8,5.9 "/>
<polygon class="st0" points="43.8,4.1 44.4,4.9 43.7,4.9 "/>
<polygon class="st0" points="23.8,8.8 24.4,9.7 23.8,9.7 "/>
<polygon class="st0" points="19.6,9.5 20.2,10.3 19.6,10.3 "/>
<polygon class="st0" points="25.9,15.8 26.5,16.7 25.9,16.7 "/>
<polygon class="st0" points="25.9,6.7 26.5,7.6 25.9,7.6 "/>
<polygon class="st0" points="15.8,10 16.4,10.9 15.8,10.9 "/>
<polygon class="st0" points="188.1,11.9 188.7,12.8 188.1,12.8 "/>
<polygon class="st0" points="14.1,9.4 14.7,10.3 14,10.3 "/>
<polygon class="st0" points="32.4,10.2 33,11.1 32.4,11.1 "/>
<polygon class="st0" points="9.9,12.2 10.5,13 9.9,13 "/>
<polygon class="st0" points="34.9,9 35.5,9.9 34.9,9.9 "/>
<polygon class="st0" points="22,14.9 22.6,15.8 22,15.8 "/>
<polygon class="st0" points="30.5,10.9 31.1,11.8 30.5,11.8 "/>
<polygon class="st0" points="114.1,5.3 114.7,6.2 114.1,6.2 "/>
<polygon class="st0" points="7.8,14.4 8.4,15.2 7.8,15.2 "/>
<polygon class="st0" points="214.5,18.6 214,17.7 214.7,17.7 "/>
<polygon class="st0" points="221.7,17.8 221.3,16.9 221.9,16.9 "/>
<polygon class="st0" points="218.2,12.8 217.7,11.9 218.3,11.9 "/>
<polygon class="st0" points="164.4,4.6 165.6,5.2 165,5.4 "/>
<polygon class="st0" points="225.6,17.3 225.1,16.4 225.7,16.4 "/>
<polygon class="st0" points="211,15.1 210.6,14.2 211.2,14.2 "/>
<polygon class="st0" points="166.2,5.8 167.4,6.4 166.9,6.6 "/>
<polygon class="st0" points="171.3,4.8 172.5,5.4 171.9,5.6 "/>
<polygon class="st0" points="168.2,6 169.4,6.6 168.9,6.8 "/>
<polygon class="st0" points="200.3,17.7 201.5,18.2 201,18.4 "/>
<polygon class="st0" points="205.4,17.2 206.6,17.7 206.1,17.9 "/>
<polygon class="st0" points="193.8,7.8 195,8.4 194.4,8.6 "/>
<polygon class="st0" points="190.9,5.9 192.1,6.5 191.6,6.7 "/>
<polygon class="st0" points="196.2,11.5 197.4,12.1 196.8,12.3 "/>
<polygon class="st0" points="203.1,8 204.3,8.6 203.8,8.8 "/>
<polygon class="st0" points="185.4,7.9 186.6,8.5 186.1,8.7 "/>
<polygon class="st0" points="199.5,9 200.7,9.6 200.2,9.7 "/>
<polygon class="st0" points="207.4,7 208.6,7.6 208,7.8 "/>
<polygon class="st0" points="181.8,14.6 183,15.2 182.4,15.4 "/>
<polygon class="st0" points="187.5,4.5 188.7,5.1 188.1,5.2 "/>
<polygon class="st0" points="205,5.9 206.2,6.5 205.6,6.7 "/>
<polygon class="st0" points="173.3,5.2 174.5,5.8 174,6 "/>
<polygon class="st0" points="169.6,6 170.8,6.6 170.3,6.8 "/>
<polygon class="st0" points="85.3,7 86.4,7.7 85.9,7.8 "/>
<polygon class="st0" points="87.4,6.7 88.6,7.4 88,7.5 "/>
<polygon class="st0" points="219.1,7.8 220.2,8.5 219.7,8.6 "/>
<polygon class="st0" points="215.7,10.2 216.9,10.8 216.3,11 "/>
<polygon class="st0" points="212.3,8.2 213.4,8.8 212.9,8.9 "/>
<polygon class="st0" points="208.6,15.2 209.8,15.8 209.2,16 "/>
<polygon class="st0" points="223.1,15.4 224.2,16 223.7,16.2 "/>
<polygon class="st0" points="191,7.2 192.1,7.8 191.5,8 "/>
<polygon class="st0" points="203.6,17.1 204.7,17.7 204.1,17.9 "/>
<polygon class="st0" points="167.1,15.3 167.3,14.4 167.8,14.5 "/>
<polygon class="st0" points="158.9,10.6 159.1,9.7 159.6,9.9 "/>
<polygon class="st0" points="104.2,5.4 104.4,4.4 104.9,4.6 "/>
<polygon class="st0" points="131.3,11.7 131.4,10.7 132,10.9 "/>
<polygon class="st0" points="178,12.6 178.2,11.7 178.7,11.9 "/>
<polygon class="st0" points="226.6,15.4 227.3,16.2 226.7,16.3 "/>
<polygon class="st0" points="139.4,12.2 139.5,11.3 140.1,11.4 "/>
<polygon class="st0" points="129.2,3.6 129.4,2.6 129.9,2.8 "/>
<polygon class="st0" points="145,5.4 145.2,4.4 145.8,4.6 "/>
<polygon class="st0" points="151,4.4 151.1,3.5 151.7,3.7 "/>
<polygon class="st0" points="144.8,7.7 145,6.8 145.5,6.9 "/>
<polygon class="st0" points="161.2,5.3 161.4,4.3 161.9,4.5 "/>
<polygon class="st0" points="155.6,4.1 155.8,3.2 156.4,3.3 "/>
<polygon class="st0" points="97.4,7.1 98.1,7.9 97.5,7.9 "/>
<polygon class="st0" points="103.5,14 104.2,14.9 103.6,14.9 "/>
<polygon class="st0" points="118.6,4.1 119.3,5 118.7,5 "/>
<polygon class="st0" points="114.1,12.4 114.8,13.3 114.2,13.3 "/>
<polygon class="st0" points="212.9,17.3 213.6,18.2 213,18.2 "/>
<polygon class="st0" points="124.8,12.5 125.5,13.4 124.8,13.4 "/>
<polygon class="st0" points="165.5,6.3 165.7,5.4 166.2,5.5 "/>
<polygon class="st0" points="126,10.8 126.7,11.6 126.1,11.7 "/>
<polygon class="st0" points="184.3,6.4 184.9,7.2 184.2,7.3 "/>
<polygon class="st0" points="189.8,5.4 190.4,6.2 189.8,6.3 "/>
<polygon class="st0" points="146.8,6.9 147.4,7.8 146.8,7.8 "/>
<polygon class="st0" points="137.9,8.5 138.5,9.3 137.9,9.3 "/>
<polygon class="st0" points="142.8,8.4 143.4,9.3 142.8,9.3 "/>
<polygon class="st0" points="154.1,8.7 154.7,9.6 154.1,9.6 "/>
<polygon class="st0" points="128.1,9.1 128.8,9.9 128.1,10 "/>
<polygon class="st0" points="150,7.5 150.6,8.4 150,8.4 "/>
<polygon class="st0" points="119.6,8.5 120.2,9.4 119.6,9.4 "/>
<polygon class="st0" points="166.5,12.3 167.1,13.2 166.5,13.2 "/>
<polygon class="st0" points="117,4.5 117.6,5.4 117,5.4 "/>
<polygon class="st0" points="172,10.3 172.6,11.1 172,11.2 "/>
<polygon class="st0" points="135.5,8.5 136.1,9.4 135.5,9.4 "/>
<polygon class="st0" points="154.2,7.7 154.8,8.6 154.2,8.6 "/>
<polygon class="st0" points="111.5,6.9 112.1,7.8 111.5,7.8 "/>
<polygon class="st0" points="203.7,21.5 203,19.8 203.8,19.9 "/>
<polygon class="st0" points="194.3,21.4 193.6,19.7 194.5,19.8 "/>
<polygon class="st0" points="161.3,10.8 160.6,9.1 161.5,9.1 "/>
<polygon class="st0" points="163.8,21.3 163.1,19.6 164,19.7 "/>
<polygon class="st0" points="161.6,22.9 160.9,21.2 161.7,21.2 "/>
<polygon class="st0" points="102.7,18.7 104.4,19.8 103.6,20.2 "/>
<polygon class="st0" points="167.2,20.5 166.5,18.8 167.4,18.9 "/>
<polygon class="st0" points="154.3,15.2 153.6,13.6 154.5,13.6 "/>
<polygon class="st0" points="178.8,23 178.1,21.4 178.9,21.4 "/>
<polygon class="st0" points="118.8,17.2 120.5,18.3 119.8,18.6 "/>
<polygon class="st0" points="183.8,21.2 183.1,19.5 184,19.6 "/>
<polygon class="st0" points="123.9,15 125.6,16.1 124.8,16.4 "/>
<polygon class="st0" points="173.4,14.7 172.8,13 173.6,13 "/>
<polygon class="st0" points="102,13.7 103.7,14.8 103,15.1 "/>
<polygon class="st0" points="198.2,19.2 197.6,17.6 198.4,17.6 "/>
<polygon class="st0" points="188.5,19.1 187.8,17.4 188.6,17.5 "/>
<polygon class="st0" points="114.8,13.9 116.5,15 115.8,15.3 "/>
<polygon class="st0" points="168.8,20.5 170.5,21.6 169.7,21.9 "/>
<polygon class="st0" points="137.6,10 139.3,11.1 138.6,11.5 "/>
<polygon class="st0" points="136.1,14.6 137.8,15.7 137,16.1 "/>
<polygon class="st0" points="183.9,18.6 185.6,19.7 184.8,20 "/>
<polygon class="st0" points="145.7,10.2 147.4,11.3 146.7,11.7 "/>
<polygon class="st0" points="131,17.4 132.7,18.5 132,18.8 "/>
<polygon class="st0" points="144.2,18.1 145.9,19.2 145.2,19.6 "/>
<polygon class="st0" points="213.7,15.1 215.4,16.2 214.6,16.5 "/>
<polygon class="st0" points="118.8,14.3 120.5,15.4 119.7,15.7 "/>
<polygon class="st0" points="132,9.6 133.7,10.7 132.9,11 "/>
<polygon class="st0" points="204.7,21.3 204,19.7 204.9,19.7 "/>
<polygon class="st0" points="138.4,14.8 140.1,15.9 139.3,16.3 "/>
<polygon class="st0" points="148.8,14.8 150.5,15.9 149.8,16.2 "/>
<polygon class="st0" points="109.2,11.3 110.9,12.4 110.2,12.8 "/>
<polygon class="st0" points="122.3,17.9 124,19 123.2,19.3 "/>
<polygon class="st0" points="46.2,21.1 47.8,22.3 47,22.6 "/>
<polygon class="st0" points="47.8,18.5 49.5,19.7 48.7,20 "/>
<polygon class="st0" points="170.1,12.3 171.7,13.5 170.9,13.8 "/>
<polygon class="st0" points="162.1,17.2 163.7,18.4 163,18.7 "/>
<polygon class="st0" points="174.1,14.3 175.8,15.5 175,15.8 "/>
<polygon class="st0" points="186.7,12.3 188.3,13.5 187.5,13.8 "/>
<polygon class="st0" points="158.8,19.1 160.4,20.3 159.6,20.6 "/>
<polygon class="st0" points="180.1,21.3 181.7,22.5 180.9,22.8 "/>
<polygon class="st0" points="155.3,17.5 156.9,18.7 156.2,19 "/>
<polygon class="st0" points="194.3,11.5 195.9,12.7 195.2,13 "/>
<polygon class="st0" points="151.6,15.2 153.2,16.4 152.4,16.6 "/>
<polygon class="st0" points="169.5,14.4 171.1,15.6 170.3,15.9 "/>
<polygon class="st0" points="164.4,16.6 166,17.7 165.2,18 "/>
<polygon class="st0" points="189.8,17.5 191.4,18.7 190.6,19 "/>
<polygon class="st0" points="185,19.8 186.6,21 185.8,21.3 "/>
<polygon class="st0" points="147,19 148.6,20.2 147.8,20.5 "/>
<polygon class="st0" points="107.3,15.2 107.6,13.4 108.3,13.7 "/>
<polygon class="st0" points="101.2,21 101.4,19.2 102.2,19.5 "/>
<polygon class="st0" points="62.1,24.2 62.4,22.5 63.1,22.8 "/>
<polygon class="st0" points="70.2,22.3 70.4,20.6 71.2,20.9 "/>
<polygon class="st0" points="71.7,15.5 71.9,13.8 72.7,14.1 "/>
<polygon class="st0" points="137,13.6 138,15.2 137.1,15.3 "/>
<polygon class="st0" points="76.6,22.4 76.8,20.7 77.6,21 "/>
<polygon class="st0" points="63.6,13.7 63.8,11.9 64.6,12.2 "/>
<polygon class="st0" points="77.5,20.7 77.8,19 78.5,19.3 "/>
<polygon class="st0" points="153.2,14.6 154.2,16.1 153.3,16.2 "/>
<polygon class="st0" points="86,18.8 86.2,17.1 87,17.4 "/>
<polygon class="st0" points="199.7,11.1 200.7,12.6 199.9,12.7 "/>
<polygon class="st0" points="81.5,17.7 81.8,16 82.5,16.3 "/>
<polygon class="st0" points="172.1,13.2 173.1,14.8 172.3,14.8 "/>
<polygon class="st0" points="98,20.7 98.2,19 99,19.3 "/>
<polygon class="st0" points="90.7,18.4 90.9,16.7 91.7,17 "/>
<polygon class="st0" points="181.6,19 182.6,20.6 181.8,20.7 "/>
<polygon class="st0" points="196.6,19.6 197.5,21.1 196.7,21.2 "/>
<polygon class="st0" points="50.4,11.2 51.3,12.7 50.5,12.8 "/>
<polygon class="st0" points="177.9,14.5 178.9,16.1 178,16.2 "/>
<polygon class="st0" points="52.3,19.4 53.3,21 52.4,21.1 "/>
<polygon class="st0" points="58.5,12.5 59.5,14.1 58.6,14.2 "/>
<polygon class="st0" points="207.8,10.7 208.8,12.3 207.9,12.3 "/>
<polygon class="st0" points="55.2,18.5 56.2,20 55.3,20.1 "/>
<polygon class="st0" points="135.9,10.2 136.9,11.8 136.1,11.9 "/>
<polygon class="st0" points="66.6,13.5 67.6,15 66.7,15.1 "/>
<polygon class="st0" points="206.2,11.9 207.1,13.4 206.3,13.5 "/>
<polygon class="st0" points="99.8,13.8 100,12 100.8,12.4 "/>
<polygon class="st0" points="212.7,18 213.7,19.6 212.8,19.6 "/>
<polygon class="st0" points="60.3,17.8 61.3,19.4 60.4,19.4 "/>
<polygon class="st0" points="176.8,12.2 177.8,13.8 176.9,13.9 "/>
<polygon class="st0" points="191.3,12.5 192.3,14 191.4,14.1 "/>
<polygon class="st0" points="129.6,9.5 130.4,11.1 129.6,11.1 "/>
<polygon class="st0" points="134.2,9.2 135.1,10.8 134.2,10.8 "/>
<polygon class="st0" points="84.1,10.5 84.9,12.1 84,12.1 "/>
<polygon class="st0" points="75.1,11 76,12.7 75.1,12.7 "/>
<polygon class="st0" points="80,18.2 80.8,19.8 80,19.8 "/>
<polygon class="st0" points="93.4,11 94.3,12.6 93.4,12.6 "/>
<polygon class="st0" points="68.3,11.5 69.2,13.1 68.3,13.1 "/>
<polygon class="st0" points="88.9,16.4 89.7,18 88.9,18.1 "/>
<polygon class="st0" points="64.9,11.2 65.8,12.8 64.9,12.8 "/>
<polygon class="st0" points="110.9,12.6 111.8,14.2 110.9,14.2 "/>
<polygon class="st0" points="56.9,12.7 57.7,14.3 56.9,14.4 "/>
<polygon class="st0" points="118.1,11.8 119,13.4 118.1,13.4 "/>
<polygon class="st0" points="73.6,17.6 74.5,19.2 73.6,19.2 "/>
<polygon class="st0" points="96.1,16.6 97,18.2 96.1,18.2 "/>
<polygon class="st0" points="210.8,18.1 211.7,19.7 210.8,19.7 "/>
<polygon class="st0" points="53.5,14.2 54.4,15.8 53.5,15.8 "/>
<polygon class="st0" points="100.3,17.9 99.6,16.2 100.5,16.3 "/>
<polygon class="st0" points="84.6,18 83.9,16.4 84.8,16.4 "/>
<polygon class="st0" points="210.6,21.7 209.9,20.1 210.8,20.1 "/>
<polygon class="st0" points="217.3,20.1 216.7,18.4 217.5,18.4 "/>
<polygon class="st0" points="51.4,19.5 50.7,17.9 51.6,17.9 "/>
<polygon class="st0" points="185.7,21.5 187.4,22.6 186.6,22.9 "/>
<polygon class="st0" points="220.3,19.2 219.6,17.5 220.5,17.6 "/>
<polygon class="st0" points="45.5,21 44.8,19.3 45.7,19.4 "/>
<polygon class="st0" points="63.6,18.3 62.9,16.7 63.8,16.7 "/>
<polygon class="st0" points="31.4,18.7 33.1,19.8 32.3,20.1 "/>
<polygon class="st0" points="68.3,17 67.6,15.4 68.5,15.4 "/>
<polygon class="st0" points="30,20.4 31.7,21.5 30.9,21.9 "/>
<polygon class="st0" points="64.6,20.1 63.9,18.4 64.8,18.4 "/>
<polygon class="st0" points="186.1,20.7 187.8,21.8 187,22.1 "/>
<polygon class="st0" points="87.4,15.3 86.7,13.6 87.6,13.7 "/>
<polygon class="st0" points="73.3,15 72.6,13.3 73.5,13.3 "/>
<polygon class="st0" points="190.8,21.1 192.5,22.2 191.7,22.5 "/>
<polygon class="st0" points="193.3,20.3 195,21.4 194.3,21.8 "/>
<polygon class="st0" points="37.3,14.6 39,15.7 38.3,16 "/>
<polygon class="st0" points="36.6,20.1 38.3,21.2 37.5,21.5 "/>
<polygon class="st0" points="38,17.1 39.7,18.2 38.9,18.5 "/>
<polygon class="st0" points="41.2,14.9 42.9,16 42.1,16.3 "/>
<polygon class="st0" points="37.6,18.9 39.3,20 38.5,20.4 "/>
<polygon class="st0" points="203.3,17 205,18.1 204.2,18.4 "/>
<polygon class="st0" points="159.8,18.5 161.5,19.6 160.7,20 "/>
<polygon class="st0" points="43.7,13.8 45.4,15 44.6,15.3 "/>
<polygon class="st0" points="31.6,19.3 33.3,20.4 32.6,20.7 "/>
<polygon class="st0" points="97.2,16.9 96.5,15.2 97.4,15.3 "/>
<polygon class="st0" points="37.2,20.5 38.9,21.6 38.1,22 "/>
<polygon class="st0" points="43,20.6 44.7,21.7 43.9,22 "/>
<polygon class="st0" points="188.6,19.1 190.3,20.2 189.5,20.5 "/>
<polygon class="st0" points="33.1,19.6 34.8,20.7 34,21 "/>
<polygon class="st0" points="15.5,24.5 17.2,25.7 16.4,26 "/>
<polygon class="st0" points="4.7,23.5 6.3,24.7 5.5,25 "/>
<polygon class="st0" points="60.8,17.8 62.5,19 61.7,19.3 "/>
<polygon class="st0" points="52.9,23 54.5,24.2 53.7,24.5 "/>
<polygon class="st0" points="65.3,20.1 66.9,21.3 66.2,21.6 "/>
<polygon class="st0" points="77.4,17.9 79.1,19.1 78.3,19.4 "/>
<polygon class="st0" points="48.6,15.9 50.2,17.1 49.5,17.4 "/>
<polygon class="st0" points="70,17.9 71.6,19.1 70.8,19.4 "/>
<polygon class="st0" points="46.5,23.3 48.1,24.5 47.3,24.8 "/>
<polygon class="st0" points="88.1,16.8 89.7,18 88.9,18.3 "/>
<polygon class="st0" points="44.1,20.8 45.7,22 44.9,22.3 "/>
<polygon class="st0" points="97.4,14.2 99,15.4 98.2,15.7 "/>
<polygon class="st0" points="55.6,22.2 57.2,23.4 56.4,23.7 "/>
<polygon class="st0" points="74.7,13.7 76.3,14.9 75.5,15.2 "/>
<polygon class="st0" points="201.4,19.9 203.1,21.1 202.3,21.4 "/>
<polygon class="st0" points="203.9,17.6 205.6,18.8 204.8,19.1 "/>
<polygon class="st0" points="25.6,20.8 25.9,19.1 26.6,19.4 "/>
<polygon class="st0" points="178.8,12.5 179,10.7 179.8,11.1 "/>
<polygon class="st0" points="10,20 10.2,18.2 11,18.6 "/>
<polygon class="st0" points="25.9,26.1 26.1,24.4 26.9,24.7 "/>
<polygon class="st0" points="15.3,19.9 15.6,18.2 16.3,18.5 "/>
<polygon class="st0" points="59.4,13.2 60.3,14.7 59.5,14.8 "/>
<polygon class="st0" points="29.3,26.2 29.5,24.5 30.3,24.8 "/>
<polygon class="st0" points="8,21.7 8.2,19.9 9,20.2 "/>
<polygon class="st0" points="29.5,25 29.7,23.2 30.4,23.5 "/>
<polygon class="st0" points="76,14.5 77,16.1 76.1,16.1 "/>
<polygon class="st0" points="21.6,24.3 21.8,22.5 22.6,22.8 "/>
<polygon class="st0" points="95.6,16.1 96.6,17.7 95.7,17.7 "/>
<polygon class="st0" points="20.5,22.9 20.7,21.1 21.5,21.4 "/>
<polygon class="st0" points="62.9,19.1 63.9,20.6 63,20.7 "/>
<polygon class="st0" points="36.7,25.1 36.9,23.4 37.7,23.7 "/>
<polygon class="st0" points="22.8,23.7 23.1,21.9 23.8,22.3 "/>
<polygon class="st0" points="71.9,15.6 72.9,17.2 72,17.2 "/>
<polygon class="st0" points="89.8,16 90.8,17.6 89.9,17.6 "/>
<polygon class="st0" points="2.4,18 3.4,19.6 2.5,19.7 "/>
<polygon class="st0" points="110,14.2 111,15.8 110.1,15.8 "/>
<polygon class="st0" points="6.6,24.5 7.5,26 6.7,26.1 "/>
<polygon class="st0" points="5.4,20.4 6.4,22 5.6,22 "/>
<polygon class="st0" points="107.5,15.5 108.5,17.1 107.6,17.2 "/>
<polygon class="st0" points="7.4,23.5 8.4,25 7.5,25.1 "/>
<polygon class="st0" points="197.1,21 198.1,22.6 197.2,22.6 "/>
<polygon class="st0" points="12.8,17.7 13.7,19.2 12.9,19.3 "/>
<polygon class="st0" points="105.4,17.3 106.4,18.9 105.5,18.9 "/>
<polygon class="st0" points="185.6,21.2 185.8,19.5 186.6,19.8 "/>
<polygon class="st0" points="114.5,14.3 115.4,15.8 114.6,15.9 "/>
<polygon class="st0" points="9.9,22.8 10.9,24.4 10,24.5 "/>
<polygon class="st0" points="67.6,17.7 68.5,19.2 67.7,19.3 "/>
<polygon class="st0" points="82.5,18.2 83.4,19.8 82.6,19.8 "/>
<polygon class="st0" points="33.5,13.2 34.3,14.8 33.5,14.8 "/>
<polygon class="st0" points="35.6,12.8 36.5,14.4 35.6,14.4 "/>
<polygon class="st0" points="17.8,18 18.7,19.6 17.8,19.6 "/>
<polygon class="st0" points="13.6,18.7 14.4,20.3 13.6,20.3 "/>
<polygon class="st0" points="19.8,23.4 20.7,25 19.8,25.1 "/>
<polygon class="st0" points="20.8,19.3 21.7,20.9 20.8,20.9 "/>
<polygon class="st0" points="10.2,19.4 11,21 10.2,21 "/>
<polygon class="st0" points="22.7,22 23.6,23.6 22.7,23.6 "/>
<polygon class="st0" points="8.5,18.6 9.3,20.2 8.5,20.3 "/>
<polygon class="st0" points="25.5,16.7 26.3,18.3 25.5,18.4 "/>
<polygon class="st0" points="4.7,20.7 5.5,22.3 4.7,22.3 "/>
<polygon class="st0" points="27.6,16.1 28.4,17.7 27.6,17.7 "/>
<polygon class="st0" points="16.4,23 17.3,24.6 16.4,24.6 "/>
<polygon class="st0" points="25.3,22.2 26.2,23.8 25.3,23.8 "/>
<polygon class="st0" points="106.3,13.9 107.2,15.5 106.3,15.5 "/>
<polygon class="st0" points="6.9,18.3 7.8,19.9 6.9,19.9 "/>
<polygon class="st0" points="226.8,20.7 226.1,19 227,19 "/>
<polygon class="st0" points="222.1,20.5 221.4,18.8 222.3,18.9 "/>
<polygon class="st0" points="185.8,16.6 185.1,14.9 186,14.9 "/>
<polygon class="st0" points="199.3,26.5 198.6,24.8 199.5,24.9 "/>
<polygon class="st0" points="195.8,21.7 195.1,20 195.9,20 "/>
<polygon class="st0" points="146.7,12.4 148.4,13.5 147.6,13.8 "/>
<polygon class="st0" points="202.7,26.2 202,24.5 202.9,24.6 "/>
<polygon class="st0" points="182.3,12.5 181.6,10.9 182.5,10.9 "/>
<polygon class="st0" points="213.8,26.7 213.1,25.1 213.9,25.1 "/>
<polygon class="st0" points="158.2,11.4 159.9,12.5 159.1,12.9 "/>
<polygon class="st0" points="217.1,26.2 216.5,24.5 217.3,24.6 "/>
<polygon class="st0" points="162.8,9.9 164.5,11 163.7,11.3 "/>
<polygon class="st0" points="209,22.6 208.3,20.9 209.2,21 "/>
<polygon class="st0" points="150.1,13.8 151.8,14.9 151.1,15.2 "/>
<polygon class="st0" points="224.4,25.4 223.7,23.8 224.5,23.8 "/>
<polygon class="st0" points="219.7,25.4 219,23.7 219.9,23.8 "/>
<polygon class="st0" points="159.5,13.6 161.2,14.7 160.4,15 "/>
<polygon class="st0" points="164.6,13.3 166.3,14.4 165.5,14.7 "/>
<polygon class="st0" points="172.7,16.2 174.4,17.3 173.6,17.6 "/>
<polygon class="st0" points="170.2,13.6 171.9,14.7 171.2,15 "/>
<polygon class="st0" points="175.5,19.5 177.2,20.6 176.4,20.9 "/>
<polygon class="st0" points="180.8,16.6 182.5,17.7 181.7,18 "/>
<polygon class="st0" points="165.6,16.2 167.3,17.3 166.6,17.6 "/>
<polygon class="st0" points="178.4,17.1 180.1,18.2 179.4,18.6 "/>
<polygon class="st0" points="228.5,27.6 230.2,28.7 229.5,29 "/>
<polygon class="st0" points="185.4,15 187.1,16.1 186.4,16.4 "/>
<polygon class="st0" points="166.2,8.6 167.9,9.7 167.1,10 "/>
<polygon class="st0" points="227.8,26.2 227.1,24.5 228,24.5 "/>
<polygon class="st0" points="166.8,12.1 168.5,13.3 167.7,13.6 "/>
<polygon class="st0" points="183.4,13.6 185.1,14.7 184.4,15.1 "/>
<polygon class="st0" points="154.8,13.1 156.5,14.2 155.7,14.5 "/>
<polygon class="st0" points="161.1,11.7 162.8,12.8 162.1,13.2 "/>
<polygon class="st0" points="76.7,17.7 78.3,18.9 77.5,19.2 "/>
<polygon class="st0" points="79.2,16.1 80.8,17.3 80,17.6 "/>
<polygon class="st0" points="205.2,20 206.8,21.2 206,21.5 "/>
<polygon class="st0" points="196.3,15.9 197.9,17.1 197.1,17.3 "/>
<polygon class="st0" points="209.7,22.2 211.3,23.4 210.5,23.7 "/>
<polygon class="st0" points="218.4,20.2 220,21.4 219.2,21.7 "/>
<polygon class="st0" points="193.4,18.1 195,19.3 194.2,19.6 "/>
<polygon class="st0" points="214.7,20 216.3,21.2 215.5,21.5 "/>
<polygon class="st0" points="189.9,16.2 191.5,17.4 190.8,17.7 "/>
<polygon class="st0" points="222.6,19.2 224.2,20.4 223.4,20.7 "/>
<polygon class="st0" points="179.6,12.2 181.2,13.4 180.4,13.7 "/>
<polygon class="st0" points="225.9,16.5 227.6,17.7 226.8,18 "/>
<polygon class="st0" points="199.9,23.7 201.5,24.8 200.7,25.1 "/>
<polygon class="st0" points="219.3,16.6 220.9,17.8 220.1,18.1 "/>
<polygon class="st0" points="202.2,24.6 203.9,25.8 203.1,26.1 "/>
<polygon class="st0" points="207.3,23.8 208.9,24.9 208.2,25.2 "/>
<polygon class="st0" points="192.5,21.5 192.8,19.8 193.5,20.1 "/>
<polygon class="st0" points="141.3,19.4 141.6,17.7 142.3,18 "/>
<polygon class="st0" points="97.7,12.8 97.9,11.1 98.7,11.4 "/>
<polygon class="st0" points="115.8,20.7 116.1,19 116.8,19.3 "/>
<polygon class="st0" points="113.2,12.6 113.5,10.9 114.2,11.2 "/>
<polygon class="st0" points="203.7,14 204.6,15.5 203.8,15.6 "/>
<polygon class="st0" points="123.5,21 123.7,19.2 124.5,19.5 "/>
<polygon class="st0" points="106.7,19.3 106.9,17.6 107.7,17.9 "/>
<polygon class="st0" points="128.8,14.3 129,12.5 129.8,12.9 "/>
<polygon class="st0" points="217.8,16.3 218.7,17.9 217.9,17.9 "/>
<polygon class="st0" points="135.5,12.8 135.8,11.1 136.5,11.4 "/>
<polygon class="st0" points="225,18.6 226,20.2 225.2,20.3 "/>
<polygon class="st0" points="128.1,16 128.3,14.3 129.1,14.6 "/>
<polygon class="st0" points="206.3,12.1 207.3,13.6 206.4,13.7 "/>
<polygon class="st0" points="143.6,14 143.9,12.3 144.6,12.6 "/>
<polygon class="st0" points="138.5,12.4 138.7,10.7 139.5,11 "/>
<polygon class="st0" points="215.4,17.8 216.4,19.4 215.5,19.4 "/>
<polygon class="st0" points="222.7,18.5 223.6,20.1 222.8,20.1 "/>
<polygon class="st0" points="87.1,15.2 88,16.8 87.2,16.9 "/>
<polygon class="st0" points="228.2,21.6 229.1,23.1 228.3,23.2 "/>
<polygon class="st0" points="89,18.2 90,19.7 89.1,19.8 "/>
<polygon class="st0" points="99.5,18.7 100.5,20.3 99.6,20.4 "/>
<polygon class="st0" points="227.8,23 228.8,24.5 227.9,24.6 "/>
<polygon class="st0" points="93.7,17.1 94.6,18.7 93.8,18.7 "/>
<polygon class="st0" points="171.3,13.3 172.3,14.8 171.5,14.9 "/>
<polygon class="st0" points="154.9,18.2 155.9,19.8 155,19.8 "/>
<polygon class="st0" points="227.4,24.8 228.4,26.3 227.5,26.4 "/>
<polygon class="st0" points="148.4,14.9 148.6,13.2 149.4,13.5 "/>
<polygon class="st0" points="228.3,21.9 229.3,23.4 228.5,23.5 "/>
<polygon class="st0" points="101.3,16.4 102.3,18 101.4,18 "/>
<polygon class="st0" points="211.9,19.8 212.9,21.4 212,21.5 "/>
<polygon class="st0" points="221.3,20.5 222.2,22 221.4,22.1 "/>
<polygon class="st0" points="164.6,14.2 165.4,15.8 164.6,15.8 "/>
<polygon class="st0" points="169.7,13.5 170.5,15.1 169.7,15.1 "/>
<polygon class="st0" points="130.5,14.7 131.4,16.4 130.5,16.4 "/>
<polygon class="st0" points="122.5,15.8 123.3,17.4 122.5,17.4 "/>
<polygon class="st0" points="126.5,16.5 127.4,18.1 126.5,18.2 "/>
<polygon class="st0" points="137,16.6 137.8,18.2 137,18.2 "/>
<polygon class="st0" points="114.4,16.8 115.3,18.4 114.4,18.4 "/>
<polygon class="st0" points="133.3,15 134.1,16.6 133.3,16.7 "/>
<polygon class="st0" points="109.3,15.9 110.2,17.5 109.3,17.5 "/>
<polygon class="st0" points="191.5,17.6 192.4,19.2 191.5,19.2 "/>
<polygon class="st0" points="97,19 97.9,20.6 97,20.6 "/>
<polygon class="st0" points="153.2,18.5 154.1,20.1 153.2,20.1 "/>
<polygon class="st0" points="120.1,16.2 121,17.8 120.1,17.8 "/>
<polygon class="st0" points="138,15.2 138.8,16.8 138,16.8 "/>
<polygon class="st0" points="228.2,28.7 229,30.3 228.2,30.3 "/>
<polygon class="st0" points="86.5,11.3 87.4,12.9 86.5,13 "/>
<polygon class="st0" points="226.6,20.5 226.1,19.6 226.7,19.6 "/>
<polygon class="st0" points="215.9,20.2 215.4,19.4 216.1,19.4 "/>
<polygon class="st0" points="176.2,23.1 175.7,22.2 176.3,22.2 "/>
<polygon class="st0" points="183.3,19.5 182.8,18.6 183.4,18.6 "/>
<polygon class="st0" points="180.6,21.8 180.2,20.9 180.8,20.9 "/>
<polygon class="st0" points="109,21.2 110.2,21.7 109.6,21.9 "/>
<polygon class="st0" points="186.7,19.1 186.2,18.2 186.8,18.2 "/>
<polygon class="st0" points="172.5,14.1 172,13.2 172.7,13.3 "/>
<polygon class="st0" points="199.5,22.4 199.1,21.5 199.7,21.5 "/>
<polygon class="st0" points="134.8,16.4 136,17 135.5,17.1 "/>
<polygon class="st0" points="205,19.7 204.5,18.9 205.1,18.9 "/>
<polygon class="st0" points="139.9,14.6 141.1,15.2 140.5,15.4 "/>
<polygon class="st0" points="192.9,13.4 192.5,12.5 193.1,12.5 "/>
<polygon class="st0" points="109.1,12.5 110.3,13.1 109.7,13.3 "/>
<polygon class="st0" points="220.7,17.6 220.2,16.7 220.8,16.8 "/>
<polygon class="st0" points="210.1,17.4 209.6,16.5 210.2,16.5 "/>
<polygon class="st0" points="140.5,10.3 141.7,10.9 141.2,11.1 "/>
<polygon class="st0" points="184.8,20.3 186,20.9 185.4,21.1 "/>
<polygon class="st0" points="124.1,12.7 125.3,13.3 124.8,13.5 "/>
<polygon class="st0" points="153.3,13.7 154.5,14.3 154,14.5 "/>
<polygon class="st0" points="158.6,20.6 159.8,21.2 159.2,21.3 "/>
<polygon class="st0" points="132.2,12.6 133.4,13.2 132.8,13.4 "/>
<polygon class="st0" points="148.7,16.4 149.9,17 149.3,17.1 "/>
<polygon class="st0" points="162.7,16.8 163.9,17.4 163.4,17.6 "/>
<polygon class="st0" points="137.3,12.2 138.5,12.8 137.9,13 "/>
<polygon class="st0" points="143.2,13.5 144.5,14.1 143.9,14.3 "/>
<polygon class="st0" points="156,14.6 157.2,15.1 156.7,15.3 "/>
<polygon class="st0" points="168.2,14.3 169.4,14.9 168.9,15.1 "/>
<polygon class="st0" points="173.2,18.6 174.4,19.2 173.9,19.4 "/>
<polygon class="st0" points="138.2,17.1 139.4,17.7 138.9,17.9 "/>
<polygon class="st0" points="55.4,21.7 56.5,22.3 56,22.5 "/>
<polygon class="st0" points="57.4,18.5 58.6,19.1 58,19.3 "/>
<polygon class="st0" points="158.7,15.6 159.8,16.3 159.3,16.4 "/>
<polygon class="st0" points="181.9,15.8 183,16.5 182.5,16.6 "/>
<polygon class="st0" points="195.2,13.8 196.4,14.5 195.8,14.6 "/>
<polygon class="st0" points="208.2,11 209.3,11.6 208.7,11.8 "/>
<polygon class="st0" points="178.1,18.7 179.3,19.3 178.7,19.5 "/>
<polygon class="st0" points="201.2,20.9 202.3,21.6 201.8,21.7 "/>
<polygon class="st0" points="174.3,16.4 175.4,17 174.8,17.2 "/>
<polygon class="st0" points="217.3,18 218.4,18.6 217.9,18.8 "/>
<polygon class="st0" points="170.1,14.7 171.3,15.3 170.7,15.5 "/>
<polygon class="st0" points="224.5,17.6 225.6,18.2 225.1,18.4 "/>
<polygon class="st0" points="184.6,15.6 185.8,16.2 185.2,16.4 "/>
<polygon class="st0" points="212.1,16.4 213.3,17 212.7,17.2 "/>
<polygon class="st0" points="159.7,21.4 160.8,22.1 160.2,22.2 "/>
<polygon class="st0" points="165.1,18.3 166.2,19 165.7,19.1 "/>
<polygon class="st0" points="169.5,22.1 169.7,21.1 170.3,21.3 "/>
<polygon class="st0" points="123.7,13.2 123.9,12.3 124.4,12.4 "/>
<polygon class="st0" points="74.9,17.7 75.1,16.8 75.6,16.9 "/>
<polygon class="st0" points="83.8,15.4 83.9,14.5 84.5,14.7 "/>
<polygon class="st0" points="78.6,14.6 78.8,13.7 79.4,13.8 "/>
<polygon class="st0" points="157.1,11.6 157.8,12.4 157.2,12.5 "/>
<polygon class="st0" points="88,16.3 88.2,15.3 88.8,15.5 "/>
<polygon class="st0" points="69.6,11.4 69.8,10.5 70.3,10.6 "/>
<polygon class="st0" points="88.8,22 89,21.1 89.5,21.3 "/>
<polygon class="st0" points="175,11.8 175.7,12.7 175.1,12.7 "/>
<polygon class="st0" points="102.6,20.3 102.8,19.4 103.3,19.5 "/>
<polygon class="st0" points="222.6,17.7 223.3,18.5 222.7,18.6 "/>
<polygon class="st0" points="90.2,16.6 90.4,15.7 90.9,15.8 "/>
<polygon class="st0" points="192.2,12 192.9,12.9 192.3,12.9 "/>
<polygon class="st0" points="101.1,22.4 101.3,21.5 101.9,21.6 "/>
<polygon class="st0" points="108.6,19.7 108.7,18.7 109.3,18.9 "/>
<polygon class="st0" points="202.2,19.2 202.9,20 202.3,20 "/>
<polygon class="st0" points="219.2,19.2 219.9,20.1 219.3,20.1 "/>
<polygon class="st0" points="59.8,10.2 60.5,11 59.9,11.1 "/>
<polygon class="st0" points="61.8,19.4 62.5,20.2 61.8,20.2 "/>
<polygon class="st0" points="64.1,11.2 64.8,12 64.2,12 "/>
<polygon class="st0" points="68,12.4 68.7,13.2 68.1,13.3 "/>
<polygon class="st0" points="153.1,10.1 153.8,10.9 153.2,10.9 "/>
<polygon class="st0" points="73.1,12.7 73.8,13.5 73.2,13.5 "/>
<polygon class="st0" points="105.9,12.7 106.1,11.8 106.6,11.9 "/>
<polygon class="st0" points="72.2,11.1 72.9,11.9 72.3,11.9 "/>
<polygon class="st0" points="197.8,11 198.4,11.8 197.8,11.8 "/>
<polygon class="st0" points="214.1,18.2 214.8,19 214.2,19 "/>
<polygon class="st0" points="145.8,7.8 146.4,8.6 145.8,8.7 "/>
<polygon class="st0" points="119.7,12.4 120.3,13.2 119.7,13.2 "/>
<polygon class="st0" points="92.6,9.1 93.2,9.9 92.6,9.9 "/>
<polygon class="st0" points="81.2,9.9 81.8,10.8 81.2,10.8 "/>
<polygon class="st0" points="95.2,10.1 95.8,11 95.2,11 "/>
<polygon class="st0" points="105,9 105.6,9.9 105,9.9 "/>
<polygon class="st0" points="75.6,10.2 76.2,11.1 75.6,11.1 "/>
<polygon class="st0" points="99.2,16.4 99.8,17.3 99.2,17.3 "/>
<polygon class="st0" points="71.4,10 72,10.9 71.4,10.9 "/>
<polygon class="st0" points="122.9,10.7 123.5,11.5 122.9,11.5 "/>
<polygon class="st0" points="63.3,11.8 63.9,12.6 63.3,12.7 "/>
<polygon class="st0" points="133.5,9.2 134.1,10.1 133.5,10.1 "/>
<polygon class="st0" points="86.3,11.5 86.9,12.3 86.3,12.3 "/>
<polygon class="st0" points="114.8,9.1 115.4,10 114.8,10 "/>
<polygon class="st0" points="62.5,13.7 63.1,14.6 62.5,14.6 "/>
<polygon class="st0" points="122.7,18.9 122.2,18 122.8,18 "/>
<polygon class="st0" points="101.4,18.9 100.9,18 101.5,18.1 "/>
<polygon class="st0" points="219.9,21.5 219.4,20.6 220,20.6 "/>
<polygon class="st0" points="67.1,19.1 66.6,18.2 67.2,18.3 "/>
<polygon class="st0" points="60.7,18.9 60.2,18 60.8,18 "/>
<polygon class="st0" points="191.4,17.9 192.6,18.5 192,18.7 "/>
<polygon class="st0" points="70.5,18.6 70,17.7 70.6,17.7 "/>
<polygon class="st0" points="54.4,20.6 53.9,19.7 54.5,19.7 "/>
<polygon class="st0" points="82,20.3 81.5,19.4 82.2,19.4 "/>
<polygon class="st0" points="35.4,23.5 36.6,24.1 36.1,24.3 "/>
<polygon class="st0" points="87.5,19 87,18.1 87.7,18.1 "/>
<polygon class="st0" points="37.9,20.8 39.1,21.4 38.5,21.6 "/>
<polygon class="st0" points="72.2,13.7 71.7,12.8 72.4,12.8 "/>
<polygon class="st0" points="193.2,21.1 194.4,21.7 193.8,21.9 "/>
<polygon class="st0" points="90.7,13.4 90.2,12.6 90.8,12.6 "/>
<polygon class="st0" points="85.1,13.5 84.7,12.6 85.3,12.7 "/>
<polygon class="st0" points="198.3,21.7 199.5,22.3 198.9,22.4 "/>
<polygon class="st0" points="201.2,20.7 202.4,21.3 201.9,21.4 "/>
<polygon class="st0" points="45.6,14.1 46.8,14.7 46.3,14.9 "/>
<polygon class="st0" points="44.5,20.4 45.7,21 45.2,21.2 "/>
<polygon class="st0" points="46.7,17.9 48,18.5 47.4,18.7 "/>
<polygon class="st0" points="49.9,14.9 51.1,15.5 50.6,15.7 "/>
<polygon class="st0" points="42.1,24.1 43.3,24.7 42.7,24.9 "/>
<polygon class="st0" points="211.6,17.8 212.8,18.4 212.3,18.6 "/>
<polygon class="st0" points="132.3,19.9 133.5,20.5 133,20.6 "/>
<polygon class="st0" points="52.4,13 53.6,13.6 53.1,13.8 "/>
<polygon class="st0" points="39.6,19.9 40.8,20.5 40.2,20.7 "/>
<polygon class="st0" points="100.1,14 99.6,13.1 100.2,13.1 "/>
<polygon class="st0" points="45.5,20.9 46.7,21.5 46.2,21.6 "/>
<polygon class="st0" points="51.8,21 53,21.6 52.4,21.8 "/>
<polygon class="st0" points="195.7,20 196.9,20.6 196.3,20.8 "/>
<polygon class="st0" points="36.7,24.1 37.9,24.7 37.4,24.9 "/>
<polygon class="st0" points="18.3,24.6 19.5,25.2 18.9,25.4 "/>
<polygon class="st0" points="7.9,22.8 9,23.5 8.5,23.6 "/>
<polygon class="st0" points="74.1,10.8 75.2,11.5 74.7,11.6 "/>
<polygon class="st0" points="65.3,17.5 66.5,18.1 65.9,18.3 "/>
<polygon class="st0" points="73.6,14.1 74.8,14.7 74.2,14.9 "/>
<polygon class="st0" points="94.5,10 95.6,10.6 95.1,10.7 "/>
<polygon class="st0" points="58.2,16.6 59.4,17.2 58.8,17.4 "/>
<polygon class="st0" points="85,22 86.2,22.7 85.6,22.8 "/>
<polygon class="st0" points="218,17.2 219.2,17.8 218.6,18 "/>
<polygon class="st0" points="104.3,9.3 105.4,10 104.9,10.1 "/>
<polygon class="st0" points="53.2,21.4 54.4,22 53.8,22.2 "/>
<polygon class="st0" points="113.3,13 114.4,13.6 113.9,13.8 "/>
<polygon class="st0" points="68,16.6 69.2,17.2 68.6,17.4 "/>
<polygon class="st0" points="98.1,16.8 99.2,17.5 98.7,17.6 "/>
<polygon class="st0" points="210.2,20.1 211.3,20.7 210.8,20.9 "/>
<polygon class="st0" points="212.7,18.6 213.8,19.2 213.3,19.4 "/>
<polygon class="st0" points="32.6,20.3 32.7,19.4 33.3,19.6 "/>
<polygon class="st0" points="191,18.8 191.2,17.9 191.7,18 "/>
<polygon class="st0" points="15.2,18.8 15.4,17.8 15.9,18 "/>
<polygon class="st0" points="20.3,26.2 20.5,25.2 21,25.4 "/>
<polygon class="st0" points="21,18.9 21.2,18 21.7,18.1 "/>
<polygon class="st0" points="65.8,12.2 66.5,13 65.9,13.1 "/>
<polygon class="st0" points="35.4,25 35.6,24 36.1,24.2 "/>
<polygon class="st0" points="13.2,19.2 13.4,18.2 13.9,18.4 "/>
<polygon class="st0" points="24.3,24.6 24.5,23.6 25,23.8 "/>
<polygon class="st0" points="82.9,14.4 83.6,15.3 83,15.3 "/>
<polygon class="st0" points="186.5,19.4 186.7,18.4 187.2,18.6 "/>
<polygon class="st0" points="108.1,15.8 108.8,16.7 108.1,16.7 "/>
<polygon class="st0" points="26.6,20.6 26.7,19.7 27.3,19.9 "/>
<polygon class="st0" points="76.9,12.9 77.6,13.7 77,13.8 "/>
<polygon class="st0" points="189.9,19.3 190.1,18.3 190.6,18.5 "/>
<polygon class="st0" points="188.2,20.3 188.4,19.3 188.9,19.5 "/>
<polygon class="st0" points="85.6,18.3 86.3,19.2 85.7,19.2 "/>
<polygon class="st0" points="107.3,17.4 108,18.3 107.3,18.3 "/>
<polygon class="st0" points="5.9,16 6.6,16.8 6,16.8 "/>
<polygon class="st0" points="121.2,13.2 121.9,14.1 121.3,14.1 "/>
<polygon class="st0" points="10.5,24.6 11.2,25.4 10.6,25.5 "/>
<polygon class="st0" points="10.7,19.2 11.3,20.1 10.7,20.1 "/>
<polygon class="st0" points="117.4,15.1 118.1,16 117.5,16 "/>
<polygon class="st0" points="12.6,22.9 13.3,23.8 12.7,23.8 "/>
<polygon class="st0" points="204.9,21.6 205.6,22.5 205,22.5 "/>
<polygon class="st0" points="14.9,20.6 15.6,21.5 15,21.5 "/>
<polygon class="st0" points="127.5,9.1 128.2,10 127.6,10 "/>
<polygon class="st0" points="192.1,21 192.3,20.1 192.8,20.2 "/>
<polygon class="st0" points="129.5,14 130.2,14.8 129.6,14.9 "/>
<polygon class="st0" points="15.1,21.8 15.8,22.6 15.2,22.7 "/>
<polygon class="st0" points="80.3,11.5 81,12.3 80.4,12.3 "/>
<polygon class="st0" points="99.8,10.2 100.5,11.1 99.9,11.1 "/>
<polygon class="st0" points="40.8,12.2 41.4,13.1 40.8,13.1 "/>
<polygon class="st0" points="43.8,11.3 44.4,12.2 43.7,12.2 "/>
<polygon class="st0" points="23.8,16.1 24.4,16.9 23.8,16.9 "/>
<polygon class="st0" points="19.6,16.7 20.2,17.6 19.6,17.6 "/>
<polygon class="st0" points="25.9,23 26.5,23.9 25.9,23.9 "/>
<polygon class="st0" points="25.9,13.9 26.5,14.8 25.9,14.8 "/>
<polygon class="st0" points="15.8,17.2 16.4,18.1 15.8,18.1 "/>
<polygon class="st0" points="188.1,19.2 188.7,20 188.1,20.1 "/>
<polygon class="st0" points="14.1,16.7 14.7,17.5 14,17.6 "/>
<polygon class="st0" points="32.4,17.5 33,18.3 32.4,18.4 "/>
<polygon class="st0" points="9.9,19.4 10.5,20.3 9.9,20.3 "/>
<polygon class="st0" points="34.9,16.2 35.5,17.1 34.9,17.1 "/>
<polygon class="st0" points="22,22.2 22.6,23 22,23 "/>
<polygon class="st0" points="30.5,18.2 31.1,19 30.5,19.1 "/>
<polygon class="st0" points="114.1,12.6 114.7,13.4 114.1,13.4 "/>
<polygon class="st0" points="7.8,21.6 8.4,22.5 7.8,22.5 "/>
<polygon class="st0" points="214.5,25.8 214,24.9 214.7,25 "/>
<polygon class="st0" points="221.7,25 221.3,24.1 221.9,24.1 "/>
<polygon class="st0" points="218.2,20 217.7,19.1 218.3,19.1 "/>
<polygon class="st0" points="164.4,11.8 165.6,12.4 165,12.6 "/>
<polygon class="st0" points="225.6,24.5 225.1,23.6 225.7,23.6 "/>
<polygon class="st0" points="211,22.3 210.6,21.4 211.2,21.5 "/>
<polygon class="st0" points="166.2,13 167.4,13.6 166.9,13.8 "/>
<polygon class="st0" points="171.3,12 172.5,12.6 171.9,12.8 "/>
<polygon class="st0" points="168.2,13.2 169.4,13.8 168.9,14 "/>
<polygon class="st0" points="200.3,24.9 201.5,25.5 201,25.7 "/>
<polygon class="st0" points="205.4,24.4 206.6,25 206.1,25.2 "/>
<polygon class="st0" points="193.8,15.1 195,15.7 194.4,15.9 "/>
<polygon class="st0" points="190.9,13.1 192.1,13.7 191.6,13.9 "/>
<polygon class="st0" points="196.2,18.7 197.4,19.3 196.8,19.5 "/>
<polygon class="st0" points="203.1,15.2 204.3,15.8 203.8,16 "/>
<polygon class="st0" points="185.4,15.2 186.6,15.7 186.1,15.9 "/>
<polygon class="st0" points="199.5,16.2 200.7,16.8 200.2,17 "/>
<polygon class="st0" points="207.4,14.3 208.6,14.8 208,15 "/>
<polygon class="st0" points="181.8,21.8 183,22.4 182.4,22.6 "/>
<polygon class="st0" points="187.5,11.7 188.7,12.3 188.1,12.5 "/>
<polygon class="st0" points="205,13.1 206.2,13.7 205.6,13.9 "/>
<polygon class="st0" points="173.3,12.4 174.5,13 174,13.2 "/>
<polygon class="st0" points="169.6,13.2 170.8,13.8 170.3,14 "/>
<polygon class="st0" points="85.3,14.3 86.4,14.9 85.9,15.1 "/>
<polygon class="st0" points="87.4,14 88.6,14.6 88,14.8 "/>
<polygon class="st0" points="219.1,15.1 220.2,15.7 219.7,15.8 "/>
<polygon class="st0" points="215.7,17.4 216.9,18.1 216.3,18.2 "/>
<polygon class="st0" points="212.3,15.4 213.4,16 212.9,16.2 "/>
<polygon class="st0" points="208.6,22.4 209.8,23.1 209.2,23.2 "/>
<polygon class="st0" points="223.1,22.6 224.2,23.2 223.7,23.4 "/>
<polygon class="st0" points="191,14.4 192.1,15.1 191.5,15.2 "/>
<polygon class="st0" points="203.6,24.3 204.7,25 204.1,25.1 "/>
<polygon class="st0" points="167.1,22.5 167.3,21.6 167.8,21.8 "/>
<polygon class="st0" points="158.9,17.9 159.1,16.9 159.6,17.1 "/>
<polygon class="st0" points="104.2,12.6 104.4,11.6 104.9,11.8 "/>
<polygon class="st0" points="131.3,18.9 131.4,17.9 132,18.1 "/>
<polygon class="st0" points="178,19.9 178.2,18.9 178.7,19.1 "/>
<polygon class="st0" points="226.6,22.6 227.3,23.5 226.7,23.5 "/>
<polygon class="st0" points="139.4,19.4 139.5,18.5 140.1,18.7 "/>
<polygon class="st0" points="129.2,10.8 129.4,9.9 129.9,10 "/>
<polygon class="st0" points="145,12.6 145.2,11.7 145.8,11.8 "/>
<polygon class="st0" points="151,11.7 151.1,10.7 151.7,10.9 "/>
<polygon class="st0" points="144.8,15 145,14 145.5,14.2 "/>
<polygon class="st0" points="161.2,12.5 161.4,11.5 161.9,11.7 "/>
<polygon class="st0" points="155.6,11.3 155.8,10.4 156.4,10.6 "/>
<polygon class="st0" points="97.4,14.3 98.1,15.1 97.5,15.2 "/>
<polygon class="st0" points="103.5,21.3 104.2,22.1 103.6,22.1 "/>
<polygon class="st0" points="118.6,11.3 119.3,12.2 118.7,12.2 "/>
<polygon class="st0" points="114.1,19.7 114.8,20.5 114.2,20.5 "/>
<polygon class="st0" points="212.9,24.6 213.6,25.4 213,25.5 "/>
<polygon class="st0" points="124.8,19.8 125.5,20.6 124.8,20.6 "/>
<polygon class="st0" points="165.5,13.6 165.7,12.6 166.2,12.8 "/>
<polygon class="st0" points="126,18 126.7,18.9 126.1,18.9 "/>
<polygon class="st0" points="184.3,13.6 184.9,14.5 184.2,14.5 "/>
<polygon class="st0" points="189.8,12.6 190.4,13.5 189.8,13.5 "/>
<polygon class="st0" points="146.8,14.2 147.4,15 146.8,15.1 "/>
<polygon class="st0" points="137.9,15.7 138.5,16.5 137.9,16.6 "/>
<polygon class="st0" points="142.8,15.6 143.4,16.5 142.8,16.5 "/>
<polygon class="st0" points="154.1,15.9 154.7,16.8 154.1,16.8 "/>
<polygon class="st0" points="128.1,16.3 128.8,17.2 128.1,17.2 "/>
<polygon class="st0" points="150,14.7 150.6,15.6 150,15.6 "/>
<polygon class="st0" points="119.6,15.8 120.2,16.6 119.6,16.6 "/>
<polygon class="st0" points="166.5,19.6 167.1,20.4 166.5,20.5 "/>
<polygon class="st0" points="117,11.8 117.6,12.6 117,12.6 "/>
<polygon class="st0" points="172,17.5 172.6,18.4 172,18.4 "/>
<polygon class="st0" points="135.5,15.8 136.1,16.6 135.5,16.7 "/>
<polygon class="st0" points="154.2,14.9 154.8,15.8 154.2,15.8 "/>
<polygon class="st0" points="111.5,14.2 112.1,15 111.5,15 "/>
</svg>
