<?xml version="1.0" encoding="utf-8"?>
<!-- Generator: Adobe Illustrator 19.2.1, SVG Export Plug-In . SVG Version: 6.00 Build 0)  -->
<svg version="1.1" id="Layer_1" xmlns="http://www.w3.org/2000/svg" xmlns:xlink="http://www.w3.org/1999/xlink" x="0px" y="0px"
	 viewBox="0 0 122.2 591.7" style="enable-background:new 0 0 122.2 591.7;" xml:space="preserve">
<style type="text/css">
	.st0{fill:#FFFFFF;}
	.st1{fill:#17191D;}
	.st2{fill:#1E2129;}
	.st3{fill:#313742;}
	.st4{fill:#3B3F45;}
	.st5{fill:#32373F;}
	.st6{fill:#424651;}
</style>
<g>
	<circle class="st0" cx="42.8" cy="116" r="19.4"/>
	<circle class="st0" cx="91.5" cy="127.7" r="14.8"/>
	<circle cx="34.3" cy="115.1" r="2.5"/>
	<circle cx="95.9" cy="125.5" r="2.5"/>
</g>
<g>
	<g>
		<path class="st1" d="M75.4,153c-2.8,0.4-2.7,1.9-2.8,4.5c-4.2,98.4-5.3,196.9-7,295.4c-0.4,26.7-1.6,53.4-2,80.1
			c-0.3,18.8-4,37-9.5,55.5c-3.2-2-3.1-5.3-3.8-7.9c-2.6-11-4.1-22.2-3.8-33.5c3.6-127.1,3.2-254.2,8.9-381.3
			c0.2-4,0.3-8.1,0.4-12.1c1-9.6,0.4-10.3-9-9.6c-2.6,0.2-5.4,1.2-7.5-1.5c0.7-4.3,4.4-4,7.4-4.7c3.8-0.9,8-0.4,11.5-2.6
			c1.2-3.2,1.5-7.2,6.4-7.1c4.8,0.1,8.7,1,11.2,6.1C80.6,144,80.9,147.2,75.4,153z"/>
		<path class="st2" d="M116.5,153.8c0-3.9-1.5-7.2-5.6-8c-2.5-0.5-4.6-1-6.6-2.9c-7.2-7.1-16.2-11.3-25.8-14c-3.4-1-3.6-2.1-3.7-5.4
			c-0.3-11.7,4.7-22.4,5.1-33.9c0.3-8,2-16,2-24c0-8.9,1.1-17.8,2-26.5c0.9-8.4-1.4-16.8,1.6-25.4c1.7-5-3-9.7-9.6-9.5
			c-1.8,1.5-0.8,3,0.2,4.2c2.9,3.5,2.3,6.5-1.2,9c-3.6,2.6-6.8,1.7-9.2-1.7c-2.8-4-7.1-5.9-10.8-8.7C39,1.5,24.6,5.8,17.5,20.2
			C-1.1,58.3-2.8,96.7,17.5,135c1.8,3.3,3.6,5.6-1.7,7.1c-4.9,1.4-8.1,4.7-7.7,10.3c0.2,3.9,2.9,5.7,6.3,6.7
			c5.2,1.4,9.4-0.2,12.1-4.7c1.7-2.8,3.4-4.6,7-4.5c6,0.3,12.1,0.4,18.2,0.1c3-0.1,3.8,1.4,4.2,3.7c2.5-3.2,3.5-6.7,1.4-10.5
			c-2.3-4-5.8-1.1-8.8-1.2c-2.9-0.1-5.9,0.3-8.8,0.5c-0.2-1.3-1-1.9-2.3-1.9c-2.2,0.9-4.6,1.1-7.4,1.9c2.7-1,5.1-1.1,7.2-1.9
			c7.6-1.9,15.3-3.3,23.1-3.2c1.2,0,2.3-0.6,1.9-1.8c-0.7-2.1-3.3-5.1,0.9-5.4c3.1-0.3,8-1.2,9.6,2.1c3.1,6.4,7.8,13.1,2.7,20.8
			c5.1,2.8,10.7,2,16.1,1.9c4.1-0.1,7.5-1,9.2,4.6c1.1,3.6,5.4,4.3,9.2,2.8C113.6,160.8,116.5,158.3,116.5,153.8z M45.6,128.5
			c-5.7,1.1-11.9-0.1-16.5-3.6c-3.7-2.8-6-6.5-7.1-10.5c-0.8-1.4-1.4-2.9-1.8-4.5c-0.7-1.4-1.3-2.8-1.7-4.3
			c-0.7-1.7-1.2-3.5-1.5-5.4c-1.9-3.6-2.5-7.7-2.1-11.8c-0.3-1.7-0.4-3.5-0.4-5.2c0.6-15.6,1.9-30.9,7-45.8c0.2-0.5,0.4-1.1,0.6-1.6
			c0.3-3.8,1.6-7.5,3.8-10.9c6.2-9.1,20-10.4,28.5-4c2.5,1.9,4.5,4.3,5.8,6.9c4.9,4.4,7.6,11.3,7.1,17.9c-0.8,8.9-2.4,17.7-3.5,26.5
			c-0.6,4.4-1,8.8-1.2,13.2c0,0.2,0,0.6,0,1.1c0.1-1.6,0,1.1,0.1,1.6c0.1,2.1,0.4,4.3,0.7,6.4c0.2,1.4,0.3,2.8,0.2,4.1
			c1.1,3.7,1.1,7.6,0,11.4c-0.4,3.6-1.6,7.2-3.8,10.4C56.6,125.4,51.2,128.1,45.6,128.5z"/>
		<path class="st3" d="M75.9,4.2c3.7,5.1,8.6,10.2,0.1,15.5c-4.1,2.6-7.7,2.6-10.9-1C61.6,15,58.3,10.9,54.9,7
			c3.9,1.1,7.3,1,11.1-1.6C68.6,3.5,72.3,2.3,75.9,4.2z"/>
		<path class="st4" d="M37,140.7c7.4-3.7,15.1-5.2,23.2-3.2c-6.6,2.9-14.5,0.5-20.7,5.1C38.8,141.9,37.9,141.3,37,140.7L37,140.7z"
			/>
		<path class="st2" d="M65,161.2c-2.2-5.1-2.9-9.4,0.2-12.6c2.6-2.7,4,1.6,1.6,7.6C66.4,157.4,65.9,158.7,65,161.2z"/>
		<path class="st5" d="M16.7,107.1c1.9,4.8,3.8,9.6,5.7,14.3c-6.7,0.1,1.9,4.1-1.3,5.2c-6.4-4-11.7-18.8-11.9-35.5
			c2.7,4.7,3.7,7.9,4.2,11.5C13.8,104.5,13.1,107.4,16.7,107.1z"/>
		<path class="st6" d="M37,140.6c-1.1,1.4-2.4,2.2-4.2,2.3c-2.4,0.2-5.3,2-7.1,0.1c-1.7-1.9-0.6-3.6,2.3-2.9c1.3,0.3,2.7,0.5,4,0.6
			C33.8,140.8,35.4,140.7,37,140.6C37,140.7,37,140.6,37,140.6z"/>
	</g>
	<g>
		<g>
			<path class="st2" d="M77.4,57.5c17.6,0,17.6-27.3,0-27.3C59.8,30.2,59.8,57.5,77.4,57.5L77.4,57.5z"/>
		</g>
	</g>
	<g>
		<g>
			<path class="st2" d="M73.8,72.8c17.6,0,17.6-27.3,0-27.3C56.2,45.5,56.2,72.8,73.8,72.8L73.8,72.8z"/>
		</g>
	</g>
	<g>
		<g>
			<path class="st2" d="M72.6,88.9c17.6,0,17.6-27.3,0-27.3C55.1,61.6,55.1,88.9,72.6,88.9L72.6,88.9z"/>
		</g>
	</g>
	<g>
		<g>
			<path class="st2" d="M71.9,104.4c17.6,0,17.6-27.3,0-27.3C54.4,77.1,54.4,104.4,71.9,104.4L71.9,104.4z"/>
		</g>
	</g>
	<g>
		<g>
			<path class="st2" d="M69.7,115.8c16.4,0,16.4-25.5,0-25.5C53.3,90.3,53.3,115.8,69.7,115.8L69.7,115.8z"/>
		</g>
	</g>
	<g>
		<g>
			<path class="st2" d="M67.6,127.8c14.6,0,14.7-22.7,0-22.7C52.9,105.1,52.9,127.8,67.6,127.8L67.6,127.8z"/>
		</g>
	</g>
</g>
</svg>
