<?xml version="1.0" encoding="utf-8"?>
<!-- Generator: Adobe Illustrator 21.0.0, SVG Export Plug-In . SVG Version: 6.00 Build 0)  -->
<svg version="1.1" id="Layer_1" xmlns="http://www.w3.org/2000/svg" xmlns:xlink="http://www.w3.org/1999/xlink" x="0px" y="0px"
	 viewBox="0 0 29.1 206.6" style="enable-background:new 0 0 29.1 206.6;" xml:space="preserve">
<style type="text/css">
	.st0{fill:url(#SVGID_1_);}
	.st1{fill:url(#SVGID_2_);}
	.st2{fill:url(#SVGID_3_);}
	.st3{fill:url(#SVGID_4_);}
	.st4{fill:url(#SVGID_5_);}
	.st5{fill:url(#SVGID_6_);}
	.st6{fill:url(#SVGID_7_);}
	.st7{fill:url(#SVGID_8_);}
	.st8{fill:url(#SVGID_9_);}
	.st9{fill:url(#SVGID_10_);}
	.st10{fill:url(#SVGID_11_);}
	.st11{fill:url(#SVGID_12_);}
	.st12{fill:url(#SVGID_13_);}
	.st13{fill:url(#SVGID_14_);}
</style>
<g>
	
		<image style="overflow:visible;opacity:0.75;enable-background:new    ;" width="196" height="929" xlink:href="ACB96432.png"  transform="matrix(0.2326 1.706790e-03 -1.755003e-03 0.2392 -3.5346 -3.848)">
	</image>
	<g>
		<g>
			
				<linearGradient id="SVGID_1_" gradientUnits="userSpaceOnUse" x1="-146.6029" y1="16.9289" x2="-146.6029" y2="-148.5168" gradientTransform="matrix(0.9538 -0.3003 -0.3003 -0.9538 134.5633 15.8868)">
				<stop  offset="0" style="stop-color:#69C52B"/>
				<stop  offset="1" style="stop-color:#006831"/>
			</linearGradient>
			<path class="st0" d="M12.5,204.2c0,0,11.4,5.3,14.2,0.2c0,0,2.3-14.2,1.7-17c-0.7-2.9-1.7-5.9-1.7-5.9s-4.7-37.9-1-38.1
				c1.1,0-2.6-11.7-2.3-12.8c0.3-1.1-2.6-6.9-1.8-7.8c0.8-0.9-1.3-18.9-1.3-18.9s0.9-6.8-0.8-8.8c-1.8-2.1-0.3-15.7-0.3-15.7
				s1.5-3-2.4-5.9L15.6,54l1.8-0.4l-1.9-11.8l-0.7-6l-12.9,13c0,0,1.5,0.2,1.7,2.3c0.3,2.1,0.2,8.3,0.2,8.3l0.4,2.1
				c0,0-0.4,5.6,0,6.7c0.4,1.1,0.5,4.6,0.5,4.6s0.3,6.3,0.5,7.2c0.3,0.9-3.1,9.6-2.7,10.6s3.2,0,3.2,0s4,36.8,4.2,38.8
				c0.2,2-1.1,4.8-1.1,4.8s0.4,3.4,0.7,4.5c0.3,1.1-1.3,5.9-0.8,6.6s3.1,3.7,3.1,3.7L12.5,204.2z"/>
			
				<linearGradient id="SVGID_2_" gradientUnits="userSpaceOnUse" x1="-123.9926" y1="25.4153" x2="-123.9926" y2="4.3037" gradientTransform="matrix(0.9538 -0.3003 -0.3003 -0.9538 134.5633 15.8868)">
				<stop  offset="0" style="stop-color:#69C52B"/>
				<stop  offset="1" style="stop-color:#006831"/>
			</linearGradient>
			<path class="st1" d="M10.2,28.4c0,0-1.4,11.4-0.8,15c0.6,3.6,3.2,6.1,4.8,5.9c1.6-0.2,2.7-7.3,2.7-7.3S12.5,29.3,10.2,28.4z"/>
			
				<linearGradient id="SVGID_3_" gradientUnits="userSpaceOnUse" x1="-116.557" y1="33.1461" x2="-116.557" y2="11.8694" gradientTransform="matrix(0.9538 -0.3003 -0.3003 -0.9538 134.5633 15.8868)">
				<stop  offset="0" style="stop-color:#69C52B"/>
				<stop  offset="1" style="stop-color:#006831"/>
			</linearGradient>
			<path class="st2" d="M16.4,40.6c0,0,6.9-10.8,4.1-14.8s-4.7-7.3-4.7-7.3l-3.9,12.1L16.4,40.6z"/>
			
				<linearGradient id="SVGID_4_" gradientUnits="userSpaceOnUse" x1="-111.2849" y1="50.8933" x2="-111.2849" y2="24.7046" gradientTransform="matrix(0.9538 -0.3003 -0.3003 -0.9538 134.5633 15.8868)">
				<stop  offset="0" style="stop-color:#69C52B"/>
				<stop  offset="0.1639" style="stop-color:#63C02B"/>
				<stop  offset="0.3817" style="stop-color:#52B12C"/>
				<stop  offset="0.6299" style="stop-color:#37982E"/>
				<stop  offset="0.8987" style="stop-color:#107730"/>
				<stop  offset="1" style="stop-color:#006831"/>
			</linearGradient>
			<path class="st3" d="M15.9,18.5c0,0-4-19.2-2.1-17.8s4,5.5,4,5.5L20.6,26L15.9,18.5z"/>
			
				<linearGradient id="SVGID_5_" gradientUnits="userSpaceOnUse" x1="-115.995" y1="50.7611" x2="-115.995" y2="22.8188" gradientTransform="matrix(0.9538 -0.3003 -0.3003 -0.9538 134.5633 15.8868)">
				<stop  offset="0" style="stop-color:#69C52B"/>
				<stop  offset="0.1639" style="stop-color:#63C02B"/>
				<stop  offset="0.3817" style="stop-color:#52B12C"/>
				<stop  offset="0.6299" style="stop-color:#37982E"/>
				<stop  offset="0.8987" style="stop-color:#107730"/>
				<stop  offset="1" style="stop-color:#006831"/>
			</linearGradient>
			<polygon class="st4" points="13.8,0.7 8.5,9.1 12,30.5 15.9,18.5 			"/>
			
				<linearGradient id="SVGID_6_" gradientUnits="userSpaceOnUse" x1="-122.8234" y1="44.381" x2="-122.8234" y2="22.8188" gradientTransform="matrix(0.9538 -0.3003 -0.3003 -0.9538 134.5633 15.8868)">
				<stop  offset="0" style="stop-color:#69C52B"/>
				<stop  offset="0.1639" style="stop-color:#63C02B"/>
				<stop  offset="0.3817" style="stop-color:#52B12C"/>
				<stop  offset="0.6299" style="stop-color:#37982E"/>
				<stop  offset="0.8987" style="stop-color:#107730"/>
				<stop  offset="1" style="stop-color:#006831"/>
			</linearGradient>
			<polygon class="st5" points="8.5,9.1 2.3,20.3 10,29.9 10.2,28.4 12,30.5 			"/>
			
				<linearGradient id="SVGID_7_" gradientUnits="userSpaceOnUse" x1="-118.8942" y1="50.7985" x2="-118.8942" y2="35.4741" gradientTransform="matrix(0.9538 -0.3003 -0.3003 -0.9538 134.5633 15.8868)">
				<stop  offset="0" style="stop-color:#69C52B"/>
				<stop  offset="0.1639" style="stop-color:#63C02B"/>
				<stop  offset="0.3817" style="stop-color:#52B12C"/>
				<stop  offset="0.6299" style="stop-color:#37982E"/>
				<stop  offset="0.8987" style="stop-color:#107730"/>
				<stop  offset="1" style="stop-color:#006831"/>
			</linearGradient>
			<path class="st6" d="M2.3,20.3L6.1,5.9c0,0,4.5-4.7,7.6-5.1S2.3,20.3,2.3,20.3z"/>
			
				<linearGradient id="SVGID_8_" gradientUnits="userSpaceOnUse" x1="-128.1491" y1="25.4233" x2="-128.1491" y2="4.3388" gradientTransform="matrix(0.9538 -0.3003 -0.3003 -0.9538 134.5633 15.8868)">
				<stop  offset="0" style="stop-color:#69C52B"/>
				<stop  offset="1" style="stop-color:#006831"/>
			</linearGradient>
			<path class="st7" d="M14.1,49.2c0,0-11.1-3.8-11.5-6.8s7.4-14,7.4-14S8.7,43.7,14.1,49.2z"/>
			
				<linearGradient id="SVGID_9_" gradientUnits="userSpaceOnUse" x1="-127.9956" y1="35.7481" x2="-127.9956" y2="12.7153" gradientTransform="matrix(0.9538 -0.3003 -0.3003 -0.9538 134.5633 15.8868)">
				<stop  offset="0" style="stop-color:#69C52B"/>
				<stop  offset="1" style="stop-color:#006831"/>
			</linearGradient>
			<path class="st8" d="M2.3,20.3L0.6,30.7c0,0,1.8,12,2.9,13c1.1,0.9,6.7-15.4,6.7-15.4S3.8,17.5,2.3,20.3z"/>
			
				<linearGradient id="SVGID_10_" gradientUnits="userSpaceOnUse" x1="-135.9713" y1="12.7885" x2="-135.9713" y2="-4.5048" gradientTransform="matrix(0.9538 -0.3003 -0.3003 -0.9538 134.5633 15.8868)">
				<stop  offset="0" style="stop-color:#69C52B"/>
				<stop  offset="1" style="stop-color:#006831"/>
			</linearGradient>
			<path class="st9" d="M3.5,43.8L1.4,55c0,0,1.5,2.6,5.5,5.2S3.5,43.8,3.5,43.8z"/>
			
				<linearGradient id="SVGID_11_" gradientUnits="userSpaceOnUse" x1="-129.704" y1="13.0648" x2="-129.704" y2="-4.1291" gradientTransform="matrix(0.9538 -0.3003 -0.3003 -0.9538 134.5633 15.8868)">
				<stop  offset="0" style="stop-color:#69C52B"/>
				<stop  offset="1" style="stop-color:#006831"/>
			</linearGradient>
			<path class="st10" d="M8,60.1l6.2-10.8c0,0-9-8.2-10.7-5.5S8,60.1,8,60.1z"/>
			
				<linearGradient id="SVGID_12_" gradientUnits="userSpaceOnUse" x1="-122.6228" y1="10.4875" x2="-122.6228" y2="-4.8866" gradientTransform="matrix(0.9538 -0.3003 -0.3003 -0.9538 134.5633 15.8868)">
				<stop  offset="0" style="stop-color:#69C52B"/>
				<stop  offset="1" style="stop-color:#006831"/>
			</linearGradient>
			<path class="st11" d="M13.7,48.3l5.2,9c0,0,2.3-4.3,0.2-6.7S16.7,42,16.7,42S12.2,45.4,13.7,48.3z"/>
			
				<linearGradient id="SVGID_13_" gradientUnits="userSpaceOnUse" x1="-132.0916" y1="-19.0247" x2="-132.0916" y2="-36.0357" gradientTransform="matrix(0.9538 -0.3003 -0.3003 -0.9538 134.5633 15.8868)">
				<stop  offset="0" style="stop-color:#69C52B"/>
				<stop  offset="0.2129" style="stop-color:#65C22B"/>
				<stop  offset="0.4044" style="stop-color:#5AB82C"/>
				<stop  offset="0.5878" style="stop-color:#48A82D"/>
				<stop  offset="0.7662" style="stop-color:#2E912E"/>
				<stop  offset="0.9393" style="stop-color:#0D7430"/>
				<stop  offset="1" style="stop-color:#006831"/>
			</linearGradient>
			<path class="st12" d="M15.7,91c0,0,7.5-9.1,5.2-12.3c-2.3-3.1-4.2-5.8-4.2-5.8L12.1,83L15.7,91z"/>
			
				<linearGradient id="SVGID_14_" gradientUnits="userSpaceOnUse" x1="-143.7504" y1="-79.9556" x2="-143.7504" y2="-98.0274" gradientTransform="matrix(-0.9538 0.3003 -0.3003 -0.9538 -152.7953 106.3269)">
				<stop  offset="0" style="stop-color:#69C52B"/>
				<stop  offset="0.2129" style="stop-color:#65C22B"/>
				<stop  offset="0.4044" style="stop-color:#5AB82C"/>
				<stop  offset="0.5878" style="stop-color:#48A82D"/>
				<stop  offset="0.7662" style="stop-color:#2E912E"/>
				<stop  offset="0.9393" style="stop-color:#0D7430"/>
				<stop  offset="1" style="stop-color:#006831"/>
			</linearGradient>
			<path class="st13" d="M18.7,155.2c0,0-13-4.2-13.3-7.8c-0.4-3.6-1-6.6-1-6.6l11.4,6.2L18.7,155.2z"/>
		</g>
	</g>
</g>
</svg>
