<?xml version="1.0" encoding="utf-8"?>
<!-- Generator: Adobe Illustrator 21.0.0, SVG Export Plug-In . SVG Version: 6.00 Build 0)  -->
<svg version="1.1" id="Layer_1" xmlns="http://www.w3.org/2000/svg" xmlns:xlink="http://www.w3.org/1999/xlink" x="0px" y="0px"
	 viewBox="0 0 200 131" style="enable-background:new 0 0 200 131;" xml:space="preserve">
<style type="text/css">
	.st0{fill:#FFE400;}
	.st1{fill:#FAF3EA;}
	.st2{fill:url(#SVGID_1_);}
	.st3{fill:url(#SVGID_2_);}
	.st4{fill:url(#SVGID_3_);}
	.st5{fill:url(#SVGID_4_);}
	.st6{fill:url(#SVGID_5_);}
</style>
<path class="st0" d="M109,14.8c80.3,5.8,90.1,70.3,86.4,103.2L4.5,110.4C1.5,60.9,40,9.9,109,14.8z"/>
<path class="st1" d="M110.4,19.2c51.6,2.1,85.1,44.2,79,96.3l-179.3-8.7C9.6,58.9,38,16.3,110.4,19.2z"/>
<linearGradient id="SVGID_1_" gradientUnits="userSpaceOnUse" x1="152.8252" y1="199.4798" x2="162.0911" y2="131.2043" gradientTransform="matrix(0.6693 -0.743 0.743 0.6693 -167.3653 82.8077)">
	<stop  offset="0" style="stop-color:#FBC079"/>
	<stop  offset="1" style="stop-color:#FFD600"/>
</linearGradient>
<path class="st2" d="M85.1,100.1L26.5,67.8c-1.4-0.8-2.6-2.1-2.4-3.4c0.4-2.5,3.9-8.1,11.4-15.7c0,0,6.5-5.8,15.8-12.1
	c0.4-0.2,1.2-0.8,2.1-0.7c0.7,0.1,1.4,0.4,1.8,1l33.2,61.2C89,99.7,86.8,101,85.1,100.1z"/>
<linearGradient id="SVGID_2_" gradientUnits="userSpaceOnUse" x1="152.7991" y1="197.039" x2="118.9714" y2="136.9657" gradientTransform="matrix(0.6693 -0.743 0.743 0.6693 -167.3653 82.8077)">
	<stop  offset="0" style="stop-color:#FBC079"/>
	<stop  offset="1" style="stop-color:#FFD600"/>
</linearGradient>
<path class="st3" d="M81.1,106.3l-63.3-1.6c-1.6,0.2-2.8-0.7-2.7-1.9c-0.7-3.8-1.2-9.4,0.2-16C16.6,81,19,76.3,21.1,73
	c0-0.1,0.2-1.3,1.6-2c0.9-0.4,2-0.6,2.9-0.3l57.3,31.4C85.3,103,83.9,105.9,81.1,106.3z"/>
<linearGradient id="SVGID_3_" gradientUnits="userSpaceOnUse" x1="165.2067" y1="218.0994" x2="234.4184" y2="254.5544" gradientTransform="matrix(0.6693 -0.743 0.743 0.6693 -167.3653 82.8077)">
	<stop  offset="0" style="stop-color:#FBC079"/>
	<stop  offset="1" style="stop-color:#FFD600"/>
</linearGradient>
<path class="st4" d="M106.8,102.7l53.1-51c2.2-2.2,3.5-1.2,5.3,0.5c5.9,5.5,11.8,15.1,16.1,27.1c4.3,12.1,4.7,22.5,4.2,29.6
	c0,0.1,0.3,1.3-0.8,2.3c-0.7,0.6-1.7,1-2.7,0.9l-75.5-5C104,106.8,104.1,103.6,106.8,102.7z"/>
<linearGradient id="SVGID_4_" gradientUnits="userSpaceOnUse" x1="170.0132" y1="218.6048" x2="242.5096" y2="192.544" gradientTransform="matrix(0.6693 -0.743 0.743 0.6693 -167.3653 82.8077)">
	<stop  offset="0" style="stop-color:#FBC079"/>
	<stop  offset="1" style="stop-color:#FFD600"/>
</linearGradient>
<path class="st5" d="M98.8,98.3l14.7-73.5c0.5-1.2,2-1.6,3.4-1c5.9,1.3,13.5,3.4,21.7,7c8.6,3.8,15,7.9,19.4,11.3
	c0.1,0.1,1.5,0.7,1.7,2c0.2,0.8-0.1,1.6-0.9,2.1L103,101.3C100.9,102.6,98,100.4,98.8,98.3z"/>
<linearGradient id="SVGID_5_" gradientUnits="userSpaceOnUse" x1="162.4306" y1="200.8816" x2="210.9183" y2="147.0064" gradientTransform="matrix(0.6693 -0.743 0.743 0.6693 -167.3653 82.8077)">
	<stop  offset="0" style="stop-color:#FBC079"/>
	<stop  offset="1" style="stop-color:#FFD600"/>
</linearGradient>
<path class="st6" d="M89.9,96.2L57.9,33.4c-0.4-1.2,0.9-1.6,2.1-2.2c5-2.3,12.4-5.5,22.3-7.4c9.3-1.9,17.4-2.1,23-1.9
	c0.2,0,1.7,0,2.9,1c0.7,0.6,1,1.4,0.6,2.1L95.5,97.1C94.6,99,90.6,98.3,89.9,96.2z"/>
</svg>
