<?xml version="1.0" encoding="utf-8"?>
<!-- Generator: Adobe Illustrator 21.0.0, SVG Export Plug-In . SVG Version: 6.00 Build 0)  -->
<svg version="1.1" id="Layer_1" xmlns="http://www.w3.org/2000/svg" xmlns:xlink="http://www.w3.org/1999/xlink" x="0px" y="0px"
	 viewBox="0 0 200 131" style="enable-background:new 0 0 200 131;" xml:space="preserve">
<style type="text/css">
	.st0{fill:#92D700;}
	.st1{fill:#E0EDBD;}
	.st2{fill:url(#SVGID_1_);}
	.st3{fill:url(#SVGID_2_);}
	.st4{fill:url(#SVGID_3_);}
	.st5{fill:url(#SVGID_4_);}
	.st6{fill:url(#SVGID_5_);}
</style>
<path class="st0" d="M109.6,14.7c82.1,6.2,91.5,71.4,87.7,104.8L3.5,111.7C0.4,61.5,39.5,9.4,109.6,14.7z"/>
<path class="st1" d="M111.1,19.2c52.4,2.1,86.4,44.9,80.3,97.8L9.2,108.2C8.7,59.5,37.6,16.2,111.1,19.2z"/>
<linearGradient id="SVGID_1_" gradientUnits="userSpaceOnUse" x1="35.3335" y1="48.2777" x2="87.4521" y2="97.4461">
	<stop  offset="0" style="stop-color:#C1DA5E"/>
	<stop  offset="1" style="stop-color:#78B200"/>
</linearGradient>
<path class="st2" d="M85.3,101.3L25.8,68.5c-1.5-0.8-2.7-2.1-2.4-3.5c0.4-2.5,3.9-8.2,11.6-15.9c0,0,6.6-5.9,16-12.2
	c0.4-0.2,1.2-0.8,2.1-0.7c0.8,0.1,1.5,0.4,1.8,1.1l33.7,62.2C89.3,100.9,87.1,102.3,85.3,101.3z"/>
<linearGradient id="SVGID_2_" gradientUnits="userSpaceOnUse" x1="15.468" y1="88.0539" x2="83.4584" y2="96.422">
	<stop  offset="0" style="stop-color:#C1DA5E"/>
	<stop  offset="1" style="stop-color:#78B200"/>
</linearGradient>
<path class="st3" d="M81.2,107.6L16.9,106c-1.6,0.2-2.8-0.7-2.7-1.9c-0.8-3.9-1.3-9.5,0.2-16.2c1.3-6,3.8-10.7,5.9-14.1
	c0-0.1,0.2-1.3,1.7-2.1c0.9-0.5,2-0.6,2.9-0.3l58.2,31.9C85.5,104.2,84.2,107.2,81.2,107.6z"/>
<linearGradient id="SVGID_3_" gradientUnits="userSpaceOnUse" x1="181.2587" y1="80.2281" x2="106.9718" y2="100.4881">
	<stop  offset="0" style="stop-color:#C1DA5E"/>
	<stop  offset="1" style="stop-color:#78B200"/>
</linearGradient>
<path class="st4" d="M107.3,104l54-51.8c2.2-2.3,3.6-1.2,5.4,0.5c6,5.6,12,15.3,16.4,27.5c4.4,12.2,4.8,22.9,4.3,30.1
	c0,0.1,0.3,1.3-0.8,2.3c-0.7,0.6-1.7,1-2.7,0.9l-76.7-5.1C104.5,108.1,104.7,104.9,107.3,104z"/>
<linearGradient id="SVGID_4_" gradientUnits="userSpaceOnUse" x1="138.1856" y1="33.6215" x2="112.5124" y2="105.0398">
	<stop  offset="0" style="stop-color:#C1DA5E"/>
	<stop  offset="1" style="stop-color:#78B200"/>
</linearGradient>
<path class="st5" d="M99.3,99.5l14.9-74.7c0.5-1.2,2-1.6,3.4-1c6,1.3,13.7,3.4,22.1,7.1c8.7,3.8,15.2,8.1,19.7,11.5
	c0.1,0.1,1.5,0.7,1.7,2c0.2,0.8-0.1,1.6-1,2.1l-56.7,56.1C101.4,103.8,98.4,101.6,99.3,99.5z"/>
<linearGradient id="SVGID_5_" gradientUnits="userSpaceOnUse" x1="83.3956" y1="23.8916" x2="87.9914" y2="99.7216">
	<stop  offset="0" style="stop-color:#C1DA5E"/>
	<stop  offset="1" style="stop-color:#78B200"/>
</linearGradient>
<path class="st6" d="M90.2,97.3L57.8,33.6c-0.4-1.2,0.9-1.7,2.2-2.3c5.1-2.3,12.6-5.6,22.6-7.5c9.5-1.9,17.7-2.1,23.4-1.9
	c0.2,0,1.8,0,2.9,1c0.7,0.6,1,1.4,0.7,2.2L95.9,98.3C95,100.2,90.9,99.5,90.2,97.3z"/>
</svg>
